<svg width="7755" height="1548" viewBox="0 0 7755 1548" fill="none" xmlns="http://www.w3.org/2000/svg">
<path d="M7339.87 952.833L7536.26 470.644H7754.64L7411.68 1253.29C7369.67 1348.06 7316.42 1417.44 7251.93 1461.4C7188.42 1506.35 7110.25 1535.17 7017.43 1547.88L6966.13 1377.86C7034.53 1363.21 7085.82 1344.64 7120.02 1322.17C7155.2 1299.7 7182.56 1266.97 7202.1 1223.97L7224.08 1175.61L6917.77 470.644H7149.33L7339.87 952.833ZM2416.69 260.863C2445.92 391.351 2267.21 608.077 1968.53 825.685C1967.35 834.585 1966.02 843.469 1964.55 852.391C1911.99 1216.61 1598.63 1520.47 1197.43 1529.11C1197.36 1529.11 1197.29 1529.1 1197.21 1529.1L1197.2 1529.3L1087 1524.07V1436.29L1179.75 1425.15C1181.21 1424.75 1182.7 1424.4 1184.21 1424.11C1376.88 1387.42 1514.78 1233.33 1578.52 1070.75C1509.86 1108.19 1438.33 1144.57 1364.48 1179.4C1331.91 1194.76 1299.46 1209.58 1267.19 1223.88C1251.48 1231.67 1235.81 1239.33 1220.18 1246.86C1197 1258.04 1173.92 1268.92 1150.98 1279.5C1148.89 1280.46 1146.81 1281.42 1144.73 1282.37C1134.03 1287.29 1123.36 1292.14 1112.72 1296.93C1093.54 1305.56 1074.46 1313.97 1055.51 1322.17C1049.1 1324.94 1042.7 1327.69 1036.32 1330.41C1034.6 1331.14 1032.89 1331.87 1031.18 1332.6C1013.15 1340.26 995.233 1347.73 977.442 1354.99C972.539 1356.99 967.644 1358.98 962.76 1360.95C936.088 1371.71 909.708 1382.01 883.662 1391.85C866.74 1398.24 849.958 1404.44 833.328 1410.43C829.677 1411.75 826.032 1413.05 822.396 1414.35C786.191 1427.26 750.725 1439.22 716.114 1450.19C713.998 1450.86 711.885 1451.52 709.775 1452.19C690.18 1458.35 670.862 1464.19 651.845 1469.71C649.388 1470.43 646.936 1471.14 644.489 1471.84C636.232 1474.21 628.032 1476.52 619.892 1478.77C614.945 1480.14 610.02 1481.48 605.118 1482.8C596.64 1485.08 588.228 1487.3 579.886 1489.44C576.965 1490.2 574.052 1490.94 571.148 1491.67C559.965 1494.5 548.909 1497.21 537.983 1499.78C533.631 1500.81 529.3 1501.82 524.99 1502.8C524.131 1503 523.272 1503.19 522.414 1503.39C515.721 1504.91 509.078 1506.38 502.489 1507.81C499.846 1508.38 497.211 1508.94 494.584 1509.5C482.437 1512.07 470.471 1514.47 458.697 1516.69C446.615 1518.98 434.734 1521.09 423.062 1523.01C421.619 1523.25 420.18 1523.48 418.744 1523.72C417.611 1523.9 416.48 1524.08 415.351 1524.26C413.91 1524.49 412.473 1524.72 411.039 1524.94C409.076 1525.25 407.118 1525.55 405.167 1525.84C403.729 1526.06 402.294 1526.28 400.862 1526.49C398.934 1526.77 397.011 1527.06 395.095 1527.33C393.659 1527.54 392.227 1527.74 390.799 1527.94C386.413 1528.56 382.061 1529.14 377.741 1529.7C373.847 1530.21 369.979 1530.69 366.139 1531.15C365.946 1531.17 365.753 1531.19 365.561 1531.22C364.134 1531.39 362.712 1531.55 361.293 1531.72C357.1 1532.2 352.941 1532.65 348.815 1533.08C347.395 1533.23 345.979 1533.37 344.567 1533.51C341.274 1533.84 338.003 1534.15 334.754 1534.44C332.562 1534.64 330.379 1534.83 328.207 1535.01C326.546 1535.15 324.892 1535.28 323.243 1535.41C321.068 1535.58 318.904 1535.74 316.75 1535.9C315.136 1536.01 313.527 1536.12 311.925 1536.23C310.561 1536.32 309.201 1536.4 307.846 1536.49C306.971 1536.54 306.097 1536.59 305.226 1536.64C303.824 1536.73 302.427 1536.8 301.034 1536.88C299.485 1536.96 297.942 1537.04 296.404 1537.11C295.007 1537.18 293.614 1537.24 292.227 1537.3C291.44 1537.34 290.655 1537.37 289.871 1537.4C287.025 1537.51 284.2 1537.61 281.396 1537.69C280.626 1537.71 279.858 1537.73 279.092 1537.75C277.721 1537.79 276.354 1537.82 274.993 1537.85C272.151 1537.91 269.331 1537.95 266.533 1537.97C265.153 1537.99 263.778 1537.99 262.408 1538C261.716 1538 261.025 1538 260.336 1538C173.941 1537.98 121.331 1497.4 85.2305 1462.81C32.1278 1422.13 3.26463 1364.4 0.169922 1326.32C0.109521 1325.74 0.0531187 1325.16 0 1324.57C157.941 1448.57 718.423 1355.2 1330.99 1092.52C1972.38 817.468 2440.07 455.763 2416.69 260.863ZM1169.21 0C1189.67 0.0274382 1209.85 0.926308 1230.1 2.66211L1230.1 2.66309V117.794C1213.92 119.533 1198.13 121.936 1182.44 124.998C1128.46 135.276 1078.78 151.79 1033.83 173.393C990.917 194.013 952.313 219.271 918.384 248.166C918.133 248.379 917.882 248.592 917.632 248.806C836.874 317.85 782.729 407.551 760.23 504.374C758.261 512.848 756.535 521.378 755.054 529.952C753.01 541.783 751.435 553.701 750.336 565.682C750.265 566.451 750.197 567.221 750.131 567.99C749.717 572.773 749.378 577.565 749.116 582.365C748.973 584.993 748.853 587.624 748.756 590.257C748.719 591.26 748.686 592.264 748.655 593.269C748.605 594.95 748.563 596.632 748.531 598.314C748.528 598.489 748.525 598.664 748.521 598.839C748.492 600.487 748.472 602.136 748.461 603.786C748.46 603.976 748.458 604.165 748.457 604.354C748.448 605.991 748.447 607.628 748.456 609.266C748.457 609.521 748.459 609.776 748.461 610.031C748.499 615.49 748.637 620.955 748.875 626.425C840.173 577.823 938.897 530.403 1043.1 485.717C1082.02 469.029 1120.68 453.158 1158.96 438.121C1164.74 428.954 1171.5 420.49 1179.11 412.871C1179.13 412.855 1179.14 412.839 1179.16 412.823C1179.28 412.707 1179.39 412.591 1179.51 412.476C1180.14 411.848 1180.78 411.227 1181.42 410.611C1181.6 410.438 1181.78 410.266 1181.96 410.094C1183.6 408.536 1185.28 407.015 1187 405.534C1187.4 405.188 1187.8 404.845 1188.21 404.504C1188.63 404.15 1189.05 403.798 1189.47 403.449C1189.62 403.32 1189.78 403.193 1189.94 403.064C1192.18 401.231 1194.48 399.462 1196.83 397.763C1198.25 396.738 1199.68 395.737 1201.14 394.763C1202.79 393.656 1204.47 392.581 1206.17 391.541C1206.47 391.361 1206.76 391.183 1207.06 391.007C1207.17 390.939 1207.28 390.873 1207.4 390.806C1207.59 390.691 1207.78 390.576 1207.98 390.463C1208.1 390.392 1208.22 390.322 1208.34 390.252C1208.53 390.146 1208.71 390.041 1208.89 389.937C1209.01 389.87 1209.13 389.803 1209.24 389.737C1209.44 389.624 1209.65 389.511 1209.85 389.398C1209.96 389.335 1210.08 389.271 1210.19 389.208C1210.8 388.872 1211.42 388.541 1212.04 388.216C1212.1 388.183 1212.17 388.15 1212.23 388.117C1212.47 387.99 1212.72 387.862 1212.97 387.736C1213.09 387.674 1213.21 387.613 1213.33 387.551C1213.54 387.447 1213.74 387.343 1213.95 387.241C1214.06 387.188 1214.16 387.135 1214.27 387.082C1214.47 386.983 1214.67 386.885 1214.87 386.787C1215.01 386.719 1215.15 386.65 1215.3 386.582C1215.47 386.499 1215.64 386.417 1215.82 386.335C1215.96 386.266 1216.11 386.197 1216.25 386.128C1217.22 385.677 1218.19 385.24 1219.18 384.814C1219.28 384.769 1219.39 384.724 1219.49 384.679C1219.72 384.582 1219.94 384.486 1220.17 384.391C1220.27 384.348 1220.37 384.305 1220.48 384.263C1220.74 384.154 1221 384.045 1221.26 383.938C1221.34 383.907 1221.41 383.875 1221.49 383.844C1221.75 383.74 1222.01 383.637 1222.26 383.535C1222.36 383.497 1222.46 383.458 1222.55 383.42C1222.83 383.312 1223.1 383.204 1223.38 383.098C1223.45 383.072 1223.52 383.045 1223.58 383.02C1223.92 382.889 1224.27 382.759 1224.61 382.631C1224.68 382.606 1224.75 382.581 1224.81 382.556C1225.1 382.449 1225.39 382.342 1225.68 382.237C1225.77 382.206 1225.86 382.176 1225.94 382.145C1226.19 382.056 1226.44 381.968 1226.69 381.88C1226.82 381.835 1226.95 381.79 1227.08 381.745C1227.31 381.665 1227.54 381.585 1227.77 381.506C1227.89 381.465 1228.01 381.424 1228.13 381.384C1229.21 381.019 1230.3 380.666 1231.41 380.324C1231.47 380.307 1231.52 380.29 1231.58 380.272C1231.89 380.179 1232.19 380.085 1232.5 379.993C1232.58 379.968 1232.67 379.943 1232.75 379.918C1233.07 379.825 1233.39 379.731 1233.7 379.64C1233.75 379.627 1233.79 379.614 1233.84 379.601C1235.76 379.047 1237.72 378.527 1239.73 378.037C1239.79 378.021 1239.86 378.004 1239.92 377.988C1250.56 375.406 1262.46 373.68 1276.08 372.524C1276.22 372.512 1276.37 372.5 1276.52 372.487C1277.41 372.413 1278.31 372.34 1279.21 372.271C1279.32 372.262 1279.44 372.254 1279.55 372.245C1280.05 372.207 1280.56 372.168 1281.06 372.131C1281.18 372.122 1281.3 372.115 1281.42 372.106C1282.34 372.04 1283.26 371.976 1284.19 371.914C1284.38 371.902 1284.57 371.89 1284.76 371.878C1285.62 371.822 1286.49 371.768 1287.37 371.716C1287.49 371.708 1287.62 371.7 1287.75 371.692L1287.74 371.693C1304.44 370.708 1323.56 370.368 1345.8 370.25C1780.36 225.449 2131.68 201.936 2186.09 329.007C2189.73 337.502 2191.97 346.495 2192.85 355.945C2191.89 353.187 2190.79 350.483 2189.55 347.839C2166.48 298.953 2096.47 276.03 1993.5 276.603C1993.49 276.603 1993.48 276.602 1993.47 276.603C1990.49 276.619 1987.47 276.656 1984.43 276.712C1980.69 276.781 1976.9 276.88 1973.07 277.009C1970.61 277.092 1968.13 277.187 1965.64 277.295C1964.3 277.352 1962.96 277.413 1961.62 277.478C1956.64 277.716 1951.6 278.003 1946.5 278.338C1946.33 278.349 1946.16 278.36 1945.98 278.371C1943.54 278.533 1941.08 278.706 1938.61 278.89C1938.41 278.904 1938.21 278.919 1938.01 278.934C1928.93 279.613 1919.65 280.439 1910.19 281.411C1908.51 281.584 1906.83 281.761 1905.14 281.942C1892.91 283.256 1880.38 284.808 1867.55 286.598C1867.14 286.655 1866.73 286.713 1866.32 286.771C1862.32 287.333 1858.28 287.919 1854.22 288.527C1847.83 289.485 1841.38 290.499 1834.85 291.57C1830.8 292.234 1826.73 292.92 1822.63 293.628C1817.51 294.512 1812.35 295.43 1807.15 296.381C1803 297.14 1798.83 297.92 1794.63 298.722C1794.03 298.837 1793.42 298.954 1792.82 299.07C1790.32 299.551 1787.81 300.039 1785.29 300.534C1784.61 300.668 1783.93 300.803 1783.25 300.938C1780.69 301.445 1778.13 301.958 1775.56 302.479C1773.52 302.892 1771.49 303.308 1769.44 303.729C1763.53 304.951 1757.57 306.214 1751.56 307.516C1750.76 307.691 1749.95 307.866 1749.14 308.042C1746.2 308.682 1743.26 309.332 1740.3 309.991C1726.65 313.036 1712.78 316.285 1698.71 319.733C1694.44 320.78 1690.14 321.846 1685.83 322.93C1684.97 323.148 1684.1 323.367 1683.23 323.587C1666.89 327.716 1650.3 332.108 1633.45 336.761C1631.1 337.411 1628.74 338.066 1626.38 338.727C1620.08 340.485 1613.75 342.281 1607.39 344.111C1600.7 346.037 1593.97 348.003 1587.21 350.008C1575.77 353.398 1564.24 356.901 1552.61 360.517C1551.43 360.881 1550.26 361.247 1549.08 361.614C1543.85 363.246 1538.61 364.9 1533.35 366.576C1529.61 367.768 1525.86 368.972 1522.1 370.187H1700.83C1828.85 370.187 1892.85 370.187 1932.62 409.984C1972.39 449.782 1972.39 513.835 1972.39 591.941V656.258C1878.14 731.581 1757.51 810.529 1617.97 887.135C1618.55 868.231 1618 849.431 1616.29 830.859C1615.53 819.867 1614.43 809.061 1613.01 798.203H1367.14C1339.43 798.203 1316.05 798.204 1296 797.596C1295 797.565 1294.01 797.533 1293.02 797.499C1288.09 797.331 1283.37 797.124 1278.83 796.867C1277.93 796.816 1277.03 796.762 1276.14 796.707C1274.35 796.596 1272.6 796.477 1270.88 796.349C1267.43 796.093 1264.09 795.802 1260.87 795.471C1260.06 795.388 1259.26 795.303 1258.47 795.215C1256.48 794.995 1254.54 794.76 1252.64 794.507C1251.88 794.406 1251.12 794.3 1250.37 794.193C1230.54 791.36 1215.03 786.525 1201.53 778.272C1198.94 776.692 1196.42 775.027 1193.95 773.283C1193.4 772.896 1192.86 772.504 1192.32 772.108C1182.02 764.595 1172.84 755.672 1165.04 745.607C1162.78 742.694 1160.64 739.684 1158.62 736.586C1157.88 735.459 1157.16 734.321 1156.46 733.171C1155.53 731.642 1154.64 730.087 1153.79 728.503C1153.37 727.711 1152.95 726.911 1152.55 726.104C1138.2 697.401 1136.72 658.937 1136.56 591.817C1136.56 591.453 1136.57 591.09 1136.57 590.728C1136.58 586.379 1136.59 582.142 1136.62 578.014C1136.62 577.298 1136.62 576.586 1136.63 575.877C1136.63 575.552 1136.63 575.226 1136.64 574.902C1136.65 572.477 1136.67 570.088 1136.7 567.737C1136.7 567.301 1136.71 566.865 1136.71 566.431C1136.72 565.575 1136.73 564.724 1136.74 563.878C1136.75 563.365 1136.75 562.854 1136.76 562.345C1136.77 561.634 1136.78 560.927 1136.79 560.224C1136.8 559.631 1136.8 559.041 1136.81 558.454C1136.83 557.646 1136.84 556.84 1136.85 556.041C1136.86 555.665 1136.87 555.289 1136.87 554.915C1136.96 549.908 1137.08 545.08 1137.22 540.422C1137.23 540.078 1137.24 539.735 1137.25 539.393C1137.28 538.553 1137.31 537.719 1137.34 536.891C1137.35 536.594 1137.36 536.297 1137.37 536.002C1137.41 534.997 1137.44 534 1137.48 533.012C1137.49 532.911 1137.49 532.809 1137.5 532.708C1137.53 531.781 1137.57 530.86 1137.61 529.947C1137.62 529.718 1137.64 529.488 1137.65 529.26C1137.71 527.891 1137.77 526.537 1137.84 525.199C1137.88 524.487 1137.92 523.778 1137.96 523.074C1137.97 522.866 1137.98 522.658 1137.99 522.451C1138.03 521.903 1138.06 521.357 1138.09 520.813C1129.27 524.852 1120.44 528.936 1111.59 533.066C1107.42 535.014 1103.24 536.972 1099.07 538.94C1097.75 539.558 1096.44 540.176 1095.13 540.796C1079.7 548.088 1064.39 555.44 1049.23 562.844C1047.19 563.838 1045.16 564.833 1043.13 565.829C1041.75 566.504 1040.37 567.178 1039 567.854C1036.37 569.15 1033.73 570.448 1031.11 571.747C1026.68 573.936 1022.26 576.13 1017.86 578.328C1016.43 579.045 1014.99 579.762 1013.56 580.479C1011.55 581.486 1009.54 582.493 1007.54 583.501C1003.23 585.666 998.942 587.834 994.662 590.007C992.365 591.173 990.071 592.341 987.781 593.509C986.101 594.366 984.423 595.223 982.747 596.081C977.055 598.995 971.384 601.916 965.736 604.843C963.256 606.128 960.78 607.416 958.308 608.704C948.562 613.782 938.885 618.877 929.277 623.989C927.53 624.919 925.785 625.85 924.043 626.78C921.684 628.04 919.328 629.301 916.978 630.563C914.897 631.681 912.819 632.799 910.745 633.918C909.155 634.776 907.567 635.634 905.98 636.492C903.711 637.721 901.444 638.95 899.183 640.181C897.437 641.13 895.694 642.081 893.953 643.031C892.573 643.785 891.195 644.538 889.818 645.292C885.911 647.432 882.016 649.576 878.134 651.721C869.917 656.261 861.756 660.812 853.654 665.371C852.064 666.266 850.475 667.162 848.889 668.058C847.412 668.892 845.937 669.726 844.464 670.561C840.336 672.9 836.224 675.242 832.128 677.585C830.721 678.39 829.316 679.194 827.913 679.999C827.394 680.297 826.877 680.596 826.358 680.894H1091.7V683.82C1091.7 763.012 1152.61 827.965 1230.1 834.332V866.303C1230.1 980.669 1230.1 1037.85 1194.57 1073.38C1159.04 1108.91 1101.86 1108.91 987.492 1108.91H655.838C654.975 1108.91 654.109 1108.91 653.24 1108.91H620.691C519.147 1108.91 465.903 1108.91 432.41 1080.36C431.796 1079.84 431.187 1079.3 430.586 1078.76C430.169 1078.39 429.757 1078 429.347 1077.62C428.696 1077.01 428.051 1076.38 427.416 1075.75C427.147 1075.48 426.881 1075.21 426.616 1074.94C424.791 1073.06 423.069 1071.13 421.443 1069.12C419.796 1067.08 418.249 1064.97 416.795 1062.79C415.966 1061.54 415.168 1060.27 414.398 1058.97C413.491 1057.44 412.624 1055.88 411.797 1054.27C411.54 1053.77 411.286 1053.27 411.037 1052.76C402.681 1035.8 398.486 1014.6 396.38 987.085C395.786 987.645 395.193 988.204 394.603 988.764C388.26 994.778 382.096 1000.75 376.115 1006.69C369.259 1013.49 362.642 1020.24 356.271 1026.93C353.873 1029.45 351.508 1031.96 349.181 1034.46C341.634 1042.56 334.457 1050.58 327.658 1058.5C324.975 1061.62 322.349 1064.73 319.784 1067.82C315.377 1073.13 311.145 1078.4 307.094 1083.62C305.561 1085.59 304.055 1087.56 302.574 1089.52C301.118 1091.44 299.687 1093.36 298.281 1095.27C297.835 1095.88 297.391 1096.48 296.949 1097.09L295.977 1098.43C295.035 1099.73 294.105 1101.03 293.188 1102.32C291.275 1105.01 289.413 1107.7 287.604 1110.36C284.628 1114.74 281.793 1119.08 279.101 1123.38C278.665 1124.07 278.233 1124.77 277.806 1125.46C277.106 1126.59 276.416 1127.72 275.736 1128.85C275.455 1129.32 275.175 1129.78 274.896 1130.25C274.48 1130.95 274.066 1131.64 273.657 1132.34C271.752 1135.58 269.932 1138.79 268.196 1141.97C268.062 1142.22 267.928 1142.47 267.794 1142.71C267.172 1143.86 266.562 1145 265.963 1146.14C265.746 1146.56 265.53 1146.97 265.315 1147.38C264.887 1148.21 264.464 1149.03 264.048 1149.85C263.437 1151.06 262.839 1152.25 262.254 1153.45C259.245 1159.59 256.571 1165.63 254.241 1171.54C252.813 1175.17 251.514 1178.75 250.345 1182.29C250.122 1182.97 249.904 1183.64 249.69 1184.31C248.722 1187.36 247.85 1190.38 247.079 1193.36C246.948 1193.87 246.82 1194.37 246.694 1194.88C246.451 1195.86 246.219 1196.83 245.997 1197.8C245.701 1199.1 245.424 1200.4 245.167 1201.69C244.768 1203.68 244.415 1205.65 244.11 1207.61C243.108 1214.06 242.617 1220.32 242.651 1226.39C242.653 1226.72 242.656 1227.06 242.661 1227.4C242.682 1228.74 242.728 1230.07 242.801 1231.4C242.819 1231.73 242.839 1232.06 242.86 1232.39C242.903 1233.05 242.952 1233.7 243.008 1234.36C243.036 1234.69 243.066 1235.01 243.098 1235.34C243.347 1237.95 243.702 1240.52 244.162 1243.04C244.335 1243.99 244.522 1244.94 244.725 1245.87C245.4 1248.99 246.241 1252.05 247.251 1255.04C247.352 1255.34 247.454 1255.64 247.559 1255.94C248.08 1257.43 248.645 1258.9 249.251 1260.36C249.736 1261.52 250.248 1262.68 250.787 1263.82C251.057 1264.39 251.334 1264.96 251.616 1265.53C254.018 1270.33 256.883 1274.87 260.195 1279.16C260.294 1279.29 260.394 1279.41 260.493 1279.54C198.835 1267.44 157.328 1243.12 141.367 1205.85C105.512 1122.12 205.887 990.068 394.256 848.214V687.78H394.254V687.779H394.252C394.253 687.766 394.255 687.751 394.256 687.737V680.894H394.911C396.727 662.687 399.12 644.778 402.09 626.715C402.9 621.104 403.773 615.521 404.706 609.964C404.741 609.755 404.777 609.547 404.812 609.338C405.729 603.908 406.706 598.505 407.739 593.128C407.767 592.981 407.795 592.834 407.823 592.688C408.595 588.685 409.399 584.697 410.235 580.724C410.274 580.542 410.312 580.36 410.351 580.178C410.904 577.558 411.471 574.945 412.052 572.338C412.135 571.967 412.219 571.596 412.303 571.225C412.492 570.382 412.682 569.54 412.874 568.698C412.97 568.278 413.066 567.859 413.163 567.439C413.372 566.534 413.582 565.629 413.794 564.726C413.881 564.353 413.968 563.981 414.056 563.609C414.341 562.4 414.629 561.192 414.921 559.985C414.984 559.724 415.049 559.462 415.112 559.2C415.358 558.19 415.606 557.18 415.855 556.172C415.953 555.78 416.05 555.387 416.147 554.995C416.391 554.019 416.636 553.044 416.883 552.069C416.937 551.856 416.99 551.641 417.045 551.428C417.351 550.227 417.66 549.028 417.972 547.83C418.09 547.377 418.21 546.924 418.329 546.471C418.546 545.644 418.764 544.817 418.984 543.991C419.064 543.693 419.143 543.394 419.223 543.096C419.538 541.919 419.856 540.743 420.177 539.568C420.205 539.467 420.232 539.364 420.26 539.263C420.591 538.051 420.926 536.841 421.264 535.633C421.37 535.251 421.48 534.87 421.587 534.488C421.84 533.587 422.095 532.687 422.352 531.788C422.447 531.455 422.542 531.123 422.638 530.79C423.008 529.502 423.379 528.215 423.756 526.931V526.934C429.805 506.315 436.748 486.149 444.542 466.464C444.54 466.466 444.539 466.469 444.537 466.472C444.625 466.249 444.714 466.026 444.803 465.803C445.09 465.079 445.379 464.357 445.669 463.635C445.833 463.225 445.998 462.816 446.163 462.407C446.45 461.695 446.738 460.982 447.027 460.271C447.205 459.835 447.384 459.4 447.562 458.965C448.714 456.152 449.883 453.349 451.069 450.557C451.107 450.469 451.143 450.381 451.181 450.293C451.508 449.523 451.838 448.755 452.168 447.987C452.353 447.556 452.538 447.125 452.725 446.694C453.014 446.025 453.304 445.356 453.596 444.688C453.803 444.212 454.011 443.737 454.219 443.263C454.519 442.577 454.821 441.892 455.124 441.208C455.309 440.791 455.494 440.374 455.68 439.957C457.404 436.082 459.161 432.227 460.952 428.393C460.993 428.305 461.033 428.217 461.074 428.13C461.445 427.337 461.819 426.545 462.192 425.753C462.388 425.34 462.583 424.927 462.779 424.514C463.083 423.874 463.388 423.234 463.693 422.595C463.935 422.089 464.178 421.584 464.421 421.079C464.723 420.452 465.024 419.825 465.328 419.199C465.577 418.686 465.829 418.173 466.079 417.66C467.307 415.145 468.55 412.639 469.808 410.143C469.91 409.938 470.012 409.733 470.115 409.529C470.452 408.862 470.791 408.196 471.13 407.53C471.398 407.003 471.667 406.475 471.937 405.948C472.225 405.384 472.515 404.821 472.806 404.258C473.073 403.74 473.341 403.222 473.609 402.704C473.93 402.087 474.25 401.47 474.572 400.854C474.864 400.295 475.158 399.739 475.451 399.182C476.618 396.964 477.797 394.753 478.987 392.55C479.249 392.065 479.51 391.58 479.772 391.097C480.094 390.505 480.417 389.915 480.74 389.324C480.981 388.885 481.221 388.446 481.462 388.007C481.801 387.39 482.141 386.774 482.482 386.158C482.752 385.672 483.021 385.186 483.292 384.7C483.646 384.064 484.001 383.429 484.357 382.795C484.624 382.32 484.892 381.847 485.159 381.373C485.49 380.788 485.819 380.202 486.151 379.617C486.49 379.021 486.832 378.426 487.173 377.83C488.462 375.578 489.763 373.334 491.076 371.098C491.243 370.814 491.409 370.529 491.576 370.245C491.963 369.588 492.352 368.933 492.741 368.277C492.992 367.855 493.243 367.434 493.494 367.013C493.868 366.385 494.244 365.759 494.62 365.133C494.888 364.687 495.157 364.24 495.426 363.795C495.765 363.234 496.104 362.673 496.444 362.113C496.805 361.52 497.167 360.927 497.529 360.335C497.823 359.855 498.115 359.375 498.41 358.896C498.925 358.059 499.444 357.224 499.963 356.39C501.115 354.535 502.276 352.687 503.445 350.845C503.69 350.46 503.934 350.074 504.179 349.689C504.558 349.095 504.938 348.501 505.319 347.907C505.663 347.372 506.008 346.838 506.353 346.304C506.649 345.844 506.946 345.385 507.243 344.927C507.633 344.327 508.024 343.728 508.415 343.129C508.738 342.634 509.061 342.139 509.386 341.645C509.673 341.207 509.963 340.77 510.252 340.333C511.065 339.102 511.881 337.874 512.701 336.648C512.922 336.318 513.142 335.986 513.364 335.656C513.694 335.166 514.025 334.676 514.356 334.187C514.717 333.653 515.078 333.119 515.44 332.586C515.801 332.056 516.163 331.527 516.524 330.998C516.872 330.49 517.22 329.983 517.568 329.476C517.975 328.884 518.383 328.294 518.792 327.704C519.068 327.306 519.344 326.908 519.62 326.511C520.037 325.911 520.455 325.311 520.874 324.712C521.221 324.216 521.571 323.722 521.92 323.227C522.257 322.748 522.592 322.269 522.93 321.792C523.173 321.448 523.418 321.105 523.662 320.762C524.658 319.361 525.658 317.964 526.664 316.571C526.799 316.384 526.934 316.195 527.069 316.008C527.489 315.428 527.91 314.851 528.331 314.272C528.652 313.832 528.972 313.392 529.294 312.952C529.711 312.382 530.13 311.813 530.549 311.244C530.86 310.822 531.171 310.4 531.482 309.979C531.909 309.403 532.336 308.827 532.764 308.253C533.103 307.798 533.443 307.343 533.783 306.889C534.187 306.349 534.591 305.808 534.997 305.27C535.39 304.747 535.786 304.227 536.181 303.706C537.708 301.69 539.246 299.681 540.796 297.682C541.033 297.376 541.268 297.069 541.506 296.764C541.931 296.217 542.358 295.672 542.784 295.127C543.152 294.657 543.52 294.187 543.889 293.718C544.289 293.209 544.69 292.7 545.092 292.192C545.444 291.747 545.797 291.302 546.15 290.857C546.563 290.339 546.975 289.82 547.389 289.303C547.786 288.806 548.185 288.31 548.584 287.813C548.967 287.337 549.35 286.86 549.734 286.385C550.472 285.472 551.212 284.562 551.954 283.653C552.243 283.3 552.532 282.947 552.821 282.595C553.334 281.969 553.848 281.344 554.363 280.72C554.708 280.302 555.055 279.885 555.401 279.468C555.825 278.957 556.249 278.446 556.675 277.937C557.076 277.456 557.478 276.976 557.88 276.496C558.32 275.972 558.761 275.448 559.203 274.925C559.583 274.474 559.963 274.023 560.345 273.573C560.739 273.108 561.136 272.644 561.532 272.18C561.945 271.696 562.357 271.211 562.771 270.728C563.157 270.278 563.544 269.831 563.931 269.383C564.942 268.209 565.957 267.038 566.977 265.871C567.137 265.687 567.296 265.503 567.457 265.319C568.031 264.663 568.609 264.009 569.186 263.354C569.374 263.141 569.561 262.927 569.75 262.714C570.284 262.11 570.819 261.508 571.354 260.906C571.721 260.495 572.087 260.084 572.454 259.674C572.835 259.248 573.216 258.822 573.599 258.396C574.078 257.863 574.559 257.329 575.04 256.797C575.43 256.365 575.821 255.934 576.213 255.503C576.604 255.073 576.996 254.643 577.388 254.214C577.857 253.7 578.327 253.186 578.798 252.673C579.596 251.804 580.397 250.937 581.199 250.072C581.371 249.887 581.544 249.702 581.717 249.517C582.386 248.797 583.056 248.077 583.729 247.359C584.071 246.994 584.416 246.63 584.76 246.266C585.275 245.719 585.789 245.172 586.306 244.627C586.724 244.186 587.143 243.745 587.562 243.305C587.949 242.899 588.337 242.493 588.725 242.088C589.202 241.589 589.68 241.092 590.158 240.595C590.568 240.169 590.978 239.745 591.389 239.32C591.838 238.855 592.287 238.39 592.738 237.926C593.128 237.525 593.52 237.126 593.91 236.727C594.697 235.922 595.485 235.119 596.275 234.317C596.803 233.782 597.331 233.247 597.86 232.714C598.193 232.379 598.527 232.044 598.86 231.71C599.403 231.165 599.946 230.62 600.491 230.077C600.898 229.671 601.307 229.266 601.715 228.861C602.199 228.381 602.684 227.901 603.17 227.422C603.589 227.008 604.009 226.595 604.43 226.183C604.916 225.706 605.402 225.23 605.89 224.754C606.282 224.371 606.674 223.988 607.067 223.605C607.812 222.882 608.559 222.162 609.307 221.441C609.466 221.288 609.625 221.133 609.784 220.979C610.654 220.143 611.526 219.309 612.4 218.477C612.823 218.075 613.248 217.675 613.671 217.274C614.164 216.808 614.655 216.34 615.149 215.875C615.602 215.449 616.057 215.024 616.511 214.599C616.958 214.179 617.406 213.759 617.854 213.341C618.321 212.906 618.788 212.473 619.256 212.039C619.726 211.603 620.197 211.167 620.668 210.732C621.085 210.348 621.501 209.964 621.919 209.581C622.516 209.033 623.115 208.487 623.714 207.94C624.062 207.623 624.41 207.304 624.759 206.987C626.593 205.321 628.436 203.663 630.289 202.015C630.726 201.626 631.164 201.24 631.602 200.853C632.041 200.463 632.481 200.073 632.922 199.685C633.392 199.27 633.864 198.857 634.335 198.444C634.931 197.922 635.528 197.399 636.126 196.878C636.444 196.601 636.762 196.326 637.08 196.05C637.663 195.544 638.247 195.039 638.832 194.535C639.264 194.163 639.695 193.789 640.128 193.418C640.847 192.801 641.568 192.187 642.29 191.572C642.513 191.382 642.736 191.191 642.96 191.001C643.904 190.199 644.849 189.399 645.797 188.602C645.986 188.443 646.176 188.285 646.365 188.126C647.181 187.442 647.998 186.759 648.816 186.078C649.052 185.882 649.289 185.686 649.525 185.49C650.247 184.892 650.97 184.295 651.693 183.699C652.055 183.402 652.416 183.105 652.778 182.809C653.418 182.284 654.059 181.76 654.701 181.237C655.052 180.952 655.403 180.667 655.755 180.382C656.392 179.865 657.03 179.35 657.669 178.835C658.049 178.528 658.429 178.221 658.811 177.915C660.774 176.34 662.746 174.774 664.728 173.217C665.142 172.891 665.559 172.566 665.975 172.241C666.498 171.832 667.021 171.423 667.545 171.015C668.03 170.638 668.515 170.262 669.001 169.886C669.609 169.415 670.219 168.945 670.829 168.476C671.174 168.21 671.519 167.944 671.865 167.679C672.578 167.132 673.293 166.588 674.008 166.044C674.31 165.814 674.611 165.585 674.913 165.355C675.577 164.852 676.242 164.352 676.907 163.851C677.328 163.534 677.749 163.216 678.171 162.899C679.141 162.172 680.113 161.446 681.088 160.723C681.352 160.527 681.618 160.332 681.883 160.137C682.637 159.579 683.391 159.022 684.147 158.467C684.53 158.186 684.914 157.905 685.297 157.625C685.936 157.158 686.577 156.691 687.218 156.226C687.657 155.906 688.098 155.587 688.538 155.269C689.126 154.843 689.716 154.419 690.306 153.995C690.758 153.67 691.211 153.344 691.664 153.02C692.375 152.511 693.087 152.005 693.8 151.499C694.08 151.3 694.359 151.101 694.639 150.902C696.757 149.402 698.885 147.912 701.021 146.433C701.321 146.225 701.622 146.019 701.922 145.812C702.659 145.302 703.397 144.794 704.137 144.287C704.524 144.021 704.913 143.756 705.301 143.491C706.066 142.969 706.832 142.448 707.6 141.929C707.848 141.76 708.097 141.592 708.346 141.424C709.155 140.877 709.965 140.333 710.776 139.789C711.125 139.556 711.473 139.323 711.821 139.09C712.49 138.643 713.161 138.199 713.832 137.754C714.247 137.479 714.662 137.202 715.078 136.928C716.117 136.242 717.157 135.558 718.2 134.877C718.522 134.667 718.846 134.458 719.169 134.248C719.892 133.778 720.615 133.307 721.34 132.839C721.769 132.562 722.199 132.285 722.629 132.009C723.361 131.538 724.095 131.068 724.829 130.599C725.197 130.363 725.567 130.129 725.936 129.895C726.637 129.448 727.34 129.003 728.043 128.559C728.431 128.313 728.819 128.068 729.208 127.823C730.069 127.281 730.932 126.741 731.796 126.202C732.004 126.072 732.213 125.943 732.421 125.813C734.667 124.416 736.922 123.028 739.187 121.651C739.465 121.482 739.745 121.314 740.023 121.146C740.865 120.635 741.707 120.126 742.551 119.619C742.897 119.411 743.243 119.203 743.59 118.995C744.354 118.537 745.12 118.081 745.887 117.625C746.225 117.424 746.564 117.222 746.903 117.021C747.778 116.503 748.656 115.988 749.533 115.473C749.706 115.371 749.879 115.268 750.052 115.167L750.857 114.695C752.941 113.478 755.031 112.27 757.128 111.07C757.351 110.943 757.575 110.817 757.798 110.689C758.767 110.137 759.736 109.585 760.708 109.036C760.897 108.929 761.087 108.823 761.276 108.717C762.189 108.202 763.104 107.688 764.02 107.177C764.399 106.965 764.78 106.753 765.16 106.541C765.966 106.093 766.773 105.647 767.581 105.201C767.896 105.027 768.211 104.852 768.526 104.679C769.431 104.181 770.338 103.686 771.245 103.191C771.508 103.048 771.77 102.905 772.033 102.762C774.394 101.479 776.764 100.207 779.142 98.9463C779.271 98.8779 779.4 98.8105 779.529 98.7422C780.479 98.2392 781.43 97.7377 782.383 97.2383C782.811 97.0139 783.239 96.7901 783.668 96.5664C784.451 96.1576 785.235 95.7502 786.021 95.3438C786.406 95.1441 786.792 94.9442 787.178 94.7451C787.948 94.3481 788.719 93.9523 789.49 93.5576C789.913 93.3413 790.336 93.1248 790.76 92.9092C793.074 91.7304 795.396 90.5614 797.727 89.4033C797.979 89.2779 798.232 89.1535 798.484 89.0283C799.468 88.5407 800.453 88.0542 801.439 87.5703C801.672 87.4561 801.906 87.3425 802.139 87.2285C803.088 86.764 804.039 86.3009 804.99 85.8398C805.312 85.6842 805.633 85.5293 805.955 85.374C806.84 84.9469 807.725 84.5209 808.612 84.0967C808.953 83.934 809.292 83.7707 809.633 83.6084C810.65 83.1236 811.669 82.6411 812.689 82.1602C812.847 82.086 813.004 82.0116 813.161 81.9375C815.598 80.7906 818.043 79.6548 820.495 78.5303C820.794 78.3931 821.094 78.257 821.394 78.1201C822.326 77.6941 823.259 77.2695 824.193 76.8467C824.492 76.7114 824.792 76.5764 825.091 76.4414C826.097 75.9876 827.105 75.536 828.113 75.0859C828.32 74.9939 828.526 74.9015 828.732 74.8096C829.735 74.3634 830.738 73.919 831.743 73.4766C832.021 73.3541 832.3 73.2316 832.578 73.1094C835.052 72.0235 837.533 70.9481 840.022 69.8848C840.269 69.7795 840.516 69.6763 840.763 69.5713C841.787 69.1348 842.813 68.6992 843.84 68.2666C844.042 68.1815 844.244 68.0967 844.446 68.0117C845.455 67.5877 846.465 67.1654 847.477 66.7451C847.84 66.5939 848.204 66.4427 848.568 66.292C849.422 65.9386 850.277 65.5871 851.133 65.2363C851.54 65.0696 851.946 64.9025 852.354 64.7363C853.363 64.3245 854.373 63.915 855.385 63.5068C855.585 63.4261 855.784 63.3442 855.984 63.2637C859.716 61.7616 863.464 60.2859 867.228 58.834C867.673 58.6621 868.119 58.4906 868.565 58.3193C869.508 57.9576 870.452 57.5979 871.396 57.2393C871.633 57.1496 871.868 57.0591 872.104 56.9697C873.158 56.571 874.213 56.1751 875.269 55.7803C875.533 55.6813 875.798 55.5812 876.062 55.4824C879.981 54.0215 883.917 52.5882 887.87 51.1816C887.953 51.152 888.037 51.1224 888.12 51.0928C889.251 50.6909 890.382 50.291 891.516 49.8936C891.86 49.7728 892.204 49.6525 892.549 49.5322C893.575 49.1738 894.603 48.8177 895.632 48.4629C895.858 48.3849 896.084 48.3064 896.311 48.2285C900.272 46.866 904.25 45.5297 908.244 44.2217C908.422 44.1633 908.601 44.1061 908.779 44.0479C909.913 43.6775 911.048 43.3093 912.184 42.9434C912.447 42.8585 912.711 42.7741 912.975 42.6895C914.054 42.3428 915.136 41.998 916.218 41.6553C916.445 41.5834 916.671 41.5111 916.898 41.4395C918.053 41.0749 919.209 40.7125 920.366 40.3525C920.572 40.2885 920.778 40.224 920.983 40.1602C924.987 38.9182 929.006 37.704 933.041 36.5166C933.279 36.4466 933.517 36.3774 933.755 36.3076C934.89 35.9746 936.026 35.6441 937.164 35.3154C937.375 35.2545 937.586 35.1936 937.797 35.1328C938.917 34.81 940.039 34.4895 941.162 34.1709C941.424 34.0965 941.687 34.0215 941.949 33.9473C943.212 33.5902 944.477 33.2355 945.743 32.8838C945.804 32.8668 945.865 32.849 945.926 32.832C950.024 31.6945 954.138 30.5862 958.268 29.5049C958.519 29.439 958.771 29.3733 959.022 29.3076C960.214 28.9969 961.406 28.6889 962.6 28.3828C962.746 28.3452 962.893 28.3071 963.04 28.2695C964.283 27.9514 965.528 27.6352 966.773 27.3223C966.926 27.2838 967.079 27.2454 967.232 27.207C970.013 26.5101 972.801 25.8257 975.595 25.1543C975.717 25.1248 975.84 25.0958 975.963 25.0664C977.287 24.7489 978.612 24.4348 979.938 24.123C979.976 24.1142 980.014 24.1046 980.052 24.0957C981.404 23.7781 982.758 23.4639 984.113 23.1523C984.232 23.125 984.352 23.0976 984.471 23.0703C985.669 22.7954 986.869 22.5232 988.069 22.2529C988.351 22.1896 988.632 22.1256 988.913 22.0625C993.093 21.1258 997.288 20.2177 1001.5 19.3379C1001.65 19.3067 1001.8 19.2763 1001.95 19.2451C1003.21 18.9808 1004.48 18.7181 1005.75 18.459C1005.93 18.4238 1006.1 18.3886 1006.27 18.3535C1007.6 18.0827 1008.94 17.815 1010.27 17.5498C1010.32 17.54 1010.37 17.5303 1010.42 17.5205C1014.74 16.6617 1019.09 15.8327 1023.44 15.0342C1023.58 15.0094 1023.71 14.9847 1023.85 14.96C1025.1 14.73 1026.36 14.5023 1027.62 14.2773C1027.92 14.2248 1028.21 14.1733 1028.51 14.1211C1029.73 13.9042 1030.95 13.6897 1032.18 13.4775C1032.29 13.4585 1032.4 13.4389 1032.51 13.4199C1033.86 13.1861 1035.21 12.9556 1036.57 12.7275C1036.68 12.708 1036.8 12.6885 1036.92 12.6689C1041.26 11.9402 1045.61 11.2411 1049.98 10.5723C1050.17 10.5428 1050.37 10.5137 1050.56 10.4844C1051.78 10.2977 1053.01 10.1136 1054.23 9.93164C1054.51 9.89104 1054.78 9.85091 1055.06 9.81055C1056.29 9.6282 1057.53 9.44804 1058.77 9.27051C1058.94 9.2463 1059.11 9.22139 1059.28 9.19727C1065.03 8.37544 1070.82 7.60612 1076.62 6.88867C1076.99 6.84261 1077.37 6.79661 1077.74 6.75098C1079 6.59704 1080.25 6.44589 1081.51 6.29688C1081.57 6.28983 1081.63 6.28243 1081.69 6.27539C1087.65 5.57155 1093.64 4.92215 1099.64 4.3291C1099.82 4.31176 1100 4.29557 1100.17 4.27832C1101.43 4.15478 1102.69 4.03369 1103.95 3.91504C1104.25 3.88676 1104.55 3.85808 1104.85 3.83008C1106.12 3.7121 1107.39 3.59741 1108.65 3.48438C1108.81 3.47007 1108.97 3.45563 1109.13 3.44141C1113.63 3.04348 1118.13 2.67562 1122.64 2.33984C1122.74 2.33251 1122.84 2.32566 1122.94 2.31836C1124.4 2.21024 1125.86 2.1055 1127.32 2.00391C1127.34 2.0028 1127.35 2.00111 1127.37 2C1128.71 1.90684 1130.06 1.81715 1131.4 1.72949C1131.76 1.70587 1132.12 1.6824 1132.49 1.65918C1138.43 1.27848 1144.39 0.951358 1150.37 0.678711C1150.52 0.672021 1150.66 0.665804 1150.81 0.65918C1152.23 0.595239 1153.65 0.534411 1155.06 0.476562C1155.15 0.473007 1155.24 0.469353 1155.33 0.46582C1156.72 0.409535 1158.11 0.356095 1159.5 0.305664C1159.7 0.298388 1159.9 0.291334 1160.1 0.28418C1161.54 0.232944 1162.98 0.183644 1164.42 0.138672C1164.47 0.13727 1164.51 0.136162 1164.56 0.134766C1166.11 0.0865865 1167.66 0.0409113 1169.21 0ZM3216.9 157C3292.13 157 3362 167.26 3426.48 187.778C3491.95 208.297 3545.69 237.121 3587.7 274.25L3514.42 438.399C3465.57 403.225 3418.18 377.821 3372.25 362.188C3326.33 346.554 3276.5 338.737 3222.76 338.737C3021.48 338.737 2920.84 455.987 2920.84 690.486C2920.84 929.871 3025.88 1049.56 3235.95 1049.56C3293.6 1049.56 3351.25 1042.24 3408.89 1027.58V797.478H3203.71V637.725H3614.08V1149.23C3563.27 1173.65 3503.67 1192.71 3435.28 1206.39C3367.86 1220.06 3298.49 1226.9 3227.16 1226.9C3116.75 1226.9 3020.99 1205.41 2939.9 1162.42C2858.8 1119.43 2796.26 1057.87 2752.3 977.749C2709.3 897.628 2687.81 801.874 2687.81 690.486C2687.81 582.03 2709.3 487.742 2752.3 407.621C2796.26 327.5 2857.82 265.945 2936.96 222.953C3017.09 178.985 3110.4 157 3216.9 157ZM4609.08 451.591C4660.86 451.591 4707.27 462.827 4748.31 485.3C4789.35 507.773 4821.1 538.062 4843.58 576.168V470.644H5061.95V1213.71H4843.58V1103.79C4821.1 1141.9 4789.35 1171.7 4748.31 1193.2C4707.27 1214.69 4660.86 1225.44 4609.08 1225.44C4544.59 1225.44 4487.43 1209.81 4437.6 1178.54C4388.74 1147.27 4350.15 1102.82 4321.81 1045.17C4294.46 986.543 4280.78 919.124 4280.78 842.912C4280.78 766.7 4294.46 698.792 4321.81 639.19C4350.15 579.589 4389.23 533.666 4439.06 501.422C4488.9 468.201 4545.57 451.591 4609.08 451.591ZM6683.83 470.644H6872.89V636.259H6683.83V924.986C6683.83 966.024 6694.57 996.313 6716.07 1015.85C6737.57 1034.42 6765.41 1043.7 6799.61 1043.7C6821.11 1043.7 6845.53 1040.28 6872.89 1033.44V1204.92C6837.72 1218.6 6795.21 1225.44 6745.38 1225.44C6653.54 1225.44 6583.19 1199.55 6534.33 1147.76C6486.46 1095.98 6462.52 1023.18 6462.52 929.383V636.259H6321.82V470.644H6462.52V296.234L6683.83 224.419V470.644ZM4162.96 453.056C4194.22 453.056 4220.6 457.941 4242.1 467.712L4240.63 669.968C4204.48 653.357 4168.33 645.053 4132.18 645.053C4073.55 645.053 4028.61 661.174 3997.34 693.418C3967.05 724.685 3951.91 768.653 3951.91 825.324V1213.71H3730.6V683.158C3730.6 604.015 3726.69 533.177 3718.87 470.644H3926.99L3941.65 598.152C3960.21 551.253 3989.03 515.589 4028.12 491.162C4068.18 465.758 4113.12 453.056 4162.96 453.056ZM5558.63 952.833L5755.02 472.109H5973.4L5646.57 1213.71H5458.97L5136.53 472.109H5368.1L5558.63 952.833ZM6257.73 1213.71H6036.42V470.644H6257.73V1213.71ZM4673.56 621.603C4618.85 621.603 4576.34 641.144 4546.05 680.228C4515.77 719.311 4500.62 773.539 4500.62 842.912C4500.62 912.285 4515.28 965.536 4544.59 1002.67C4574.88 1038.82 4617.87 1056.89 4673.56 1056.89C4728.28 1056.89 4770.29 1038.33 4799.61 1001.2C4828.92 964.07 4843.58 910.33 4843.58 839.98C4843.58 769.631 4828.92 715.891 4799.61 678.762C4770.29 640.656 4728.28 621.603 4673.56 621.603ZM1136.55 567.437C1136.55 575.963 1136.55 584.081 1136.56 591.817C1136.56 593.002 1136.56 594.195 1136.56 595.396C1136.56 596.592 1136.55 597.797 1136.55 599.01C1136.55 600.366 1136.55 601.733 1136.55 603.11C1136.55 599.678 1136.55 571.041 1136.55 567.437ZM6165.05 157.293C6220.28 157.293 6265.05 202.064 6265.05 257.293V265.411C6265.05 320.64 6220.28 365.411 6165.05 365.411H6129.09C6073.86 365.411 6029.09 320.64 6029.09 265.411V257.293C6029.09 202.064 6073.86 157.293 6129.09 157.293H6165.05Z" fill="url(#paint0_linear_83_1155)"/>
<defs>
<linearGradient id="paint0_linear_83_1155" x1="1338.4" y1="1490.7" x2="2609.53" y2="-356.195" gradientUnits="userSpaceOnUse">
<stop stop-color="#FFF5E9"/>
<stop offset="1" stop-color="#E6CDC8"/>
</linearGradient>
</defs>
</svg>
