<svg width="7755" height="1548" viewBox="0 0 7755 1548" fill="none" xmlns="http://www.w3.org/2000/svg">
<path d="M7339.87 952.833L7536.26 470.644H7754.64L7411.68 1253.29C7369.67 1348.06 7316.42 1417.44 7251.93 1461.4C7188.42 1506.35 7110.25 1535.17 7017.43 1547.88L6966.13 1377.86C7034.53 1363.21 7085.82 1344.64 7120.02 1322.17C7155.2 1299.7 7182.56 1266.97 7202.1 1223.97L7224.08 1175.61L6917.77 470.644H7149.33L7339.87 952.833ZM2416.69 260.863C2445.92 391.351 2267.21 608.077 1968.53 825.685C1967.35 834.585 1966.02 843.469 1964.55 852.391C1911.99 1216.61 1598.63 1520.47 1197.43 1529.11C1197.36 1529.11 1197.29 1529.1 1197.21 1529.1L1197.2 1529.3L1087 1524.07V1436.29L1179.75 1425.15C1181.21 1424.75 1182.7 1424.4 1184.21 1424.11C1376.88 1387.42 1514.78 1233.33 1578.52 1070.75C1509.86 1108.19 1438.33 1144.57 1364.48 1179.4C1331.91 1194.76 1299.46 1209.58 1267.19 1223.88C1251.48 1231.67 1235.81 1239.33 1220.18 1246.86C1197 1258.04 1173.92 1268.92 1150.98 1279.5C1148.89 1280.46 1146.81 1281.42 1144.73 1282.37C1134.03 1287.29 1123.36 1292.14 1112.72 1296.93C1093.54 1305.56 1074.46 1313.97 1055.51 1322.17C1049.1 1324.94 1042.7 1327.69 1036.32 1330.41C1034.6 1331.14 1032.89 1331.87 1031.18 1332.6C1013.15 1340.26 995.233 1347.73 977.442 1354.99C972.539 1356.99 967.644 1358.98 962.76 1360.95C936.088 1371.71 909.708 1382.01 883.662 1391.85C866.74 1398.24 849.958 1404.44 833.328 1410.43C829.677 1411.75 826.032 1413.05 822.396 1414.35C786.191 1427.26 750.725 1439.22 716.114 1450.19C713.998 1450.86 711.885 1451.52 709.775 1452.19C690.18 1458.35 670.862 1464.19 651.845 1469.71C649.388 1470.43 646.936 1471.14 644.489 1471.84C636.232 1474.21 628.032 1476.52 619.892 1478.77C614.945 1480.14 610.02 1481.48 605.118 1482.8C596.64 1485.08 588.228 1487.3 579.886 1489.44C576.965 1490.2 574.052 1490.94 571.148 1491.67C559.965 1494.5 548.909 1497.21 537.983 1499.78C533.631 1500.81 529.3 1501.82 524.99 1502.8C524.131 1503 523.272 1503.19 522.414 1503.39C515.721 1504.91 509.078 1506.38 502.489 1507.81C499.846 1508.38 497.211 1508.94 494.584 1509.5C482.437 1512.07 470.471 1514.47 458.697 1516.69C446.615 1518.98 434.734 1521.09 423.062 1523.01C421.619 1523.25 420.18 1523.48 418.744 1523.72C417.611 1523.9 416.48 1524.08 415.351 1524.26C413.91 1524.49 412.473 1524.72 411.039 1524.94C409.076 1525.25 407.118 1525.55 405.167 1525.84C403.729 1526.06 402.294 1526.28 400.862 1526.49C398.934 1526.77 397.011 1527.06 395.095 1527.33C393.659 1527.54 392.227 1527.74 390.799 1527.94C386.413 1528.56 382.061 1529.14 377.741 1529.7C373.847 1530.21 369.979 1530.69 366.139 1531.15C365.946 1531.17 365.753 1531.19 365.561 1531.22C364.134 1531.39 362.712 1531.55 361.293 1531.72C357.1 1532.2 352.941 1532.65 348.815 1533.08C347.395 1533.23 345.979 1533.37 344.567 1533.51C341.274 1533.84 338.003 1534.15 334.754 1534.44C332.562 1534.64 330.379 1534.83 328.207 1535.01C326.546 1535.15 324.892 1535.28 323.243 1535.41C321.068 1535.58 318.904 1535.74 316.75 1535.9C315.136 1536.01 313.527 1536.12 311.925 1536.23C310.561 1536.32 309.201 1536.4 307.846 1536.49C306.971 1536.54 306.097 1536.59 305.226 1536.64C303.824 1536.73 302.427 1536.8 301.034 1536.88C299.485 1536.96 297.942 1537.04 296.404 1537.11C295.007 1537.18 293.614 1537.24 292.227 1537.3C291.44 1537.34 290.655 1537.37 289.871 1537.4C287.025 1537.51 284.2 1537.61 281.396 1537.69C280.626 1537.71 279.858 1537.73 279.092 1537.75C277.721 1537.79 276.354 1537.82 274.993 1537.85C272.151 1537.91 269.331 1537.95 266.533 1537.97C265.153 1537.99 263.778 1537.99 262.408 1538C261.716 1538 261.025 1538 260.336 1538C173.941 1537.98 121.331 1497.4 85.2305 1462.81C32.1278 1422.13 3.26463 1364.4 0.169922 1326.32C0.109521 1325.74 0.0531187 1325.16 0 1324.57C157.941 1448.57 718.423 1355.2 1330.99 1092.52C1972.38 817.468 2440.07 455.763 2416.69 260.863ZM1169.21 0C1189.67 0.0274382 1209.85 0.926308 1230.1 2.66211L1230.1 2.66309V117.794C1213.92 119.533 1198.13 121.936 1182.44 124.998C1128.46 135.276 1078.78 151.79 1033.83 173.393C990.917 194.013 952.313 219.271 918.384 248.166C918.133 248.379 917.882 248.592 917.632 248.806C913.459 252.373 909.358 255.997 905.328 259.673C904.874 260.087 904.422 260.501 903.97 260.916C830.754 328.188 781.436 413.117 760.23 504.374C758.261 512.848 756.535 521.378 755.054 529.952C753.01 541.783 751.435 553.701 750.336 565.682C750.265 566.451 750.197 567.221 750.131 567.99C749.717 572.773 749.378 577.565 749.116 582.365C748.973 584.993 748.853 587.624 748.756 590.257C748.719 591.26 748.686 592.264 748.655 593.269C748.605 594.95 748.563 596.632 748.531 598.314C748.528 598.489 748.525 598.664 748.521 598.839C748.492 600.487 748.472 602.136 748.461 603.786C748.46 603.976 748.458 604.165 748.457 604.354C748.448 605.991 748.447 607.628 748.456 609.266C748.457 609.521 748.459 609.776 748.461 610.031C748.499 615.49 748.637 620.955 748.875 626.425C840.173 577.823 938.897 530.403 1043.1 485.717C1082.02 469.029 1120.68 453.158 1158.96 438.121C1164.74 428.954 1171.5 420.49 1179.11 412.871C1179.13 412.855 1179.14 412.839 1179.16 412.823C1179.28 412.707 1179.39 412.591 1179.51 412.476C1180.14 411.848 1180.78 411.227 1181.42 410.611C1181.6 410.438 1181.78 410.266 1181.96 410.094C1183.6 408.536 1185.28 407.015 1187 405.534C1187.4 405.188 1187.8 404.845 1188.21 404.504C1188.63 404.15 1189.05 403.798 1189.47 403.449C1189.62 403.32 1189.78 403.193 1189.94 403.064C1192.18 401.231 1194.48 399.462 1196.83 397.763C1198.25 396.738 1199.68 395.737 1201.14 394.763C1202.79 393.656 1204.47 392.581 1206.17 391.541C1206.47 391.361 1206.76 391.183 1207.06 391.007C1207.17 390.939 1207.28 390.873 1207.4 390.806C1207.59 390.691 1207.78 390.576 1207.98 390.463C1208.1 390.392 1208.22 390.322 1208.34 390.252C1208.53 390.146 1208.71 390.041 1208.89 389.937C1209.01 389.87 1209.13 389.803 1209.24 389.737C1209.44 389.624 1209.65 389.511 1209.85 389.398C1209.96 389.335 1210.08 389.271 1210.19 389.208C1210.8 388.872 1211.42 388.541 1212.04 388.216C1212.1 388.183 1212.17 388.15 1212.23 388.117C1212.47 387.99 1212.72 387.862 1212.97 387.736C1213.09 387.674 1213.21 387.613 1213.33 387.551C1213.54 387.447 1213.74 387.343 1213.95 387.241C1214.06 387.188 1214.16 387.135 1214.27 387.082C1214.47 386.983 1214.67 386.885 1214.87 386.787C1215.01 386.719 1215.15 386.65 1215.3 386.582C1215.47 386.499 1215.64 386.417 1215.82 386.335C1215.96 386.266 1216.11 386.197 1216.25 386.128C1217.22 385.677 1218.19 385.24 1219.18 384.814C1219.28 384.769 1219.39 384.724 1219.49 384.679C1219.72 384.582 1219.94 384.486 1220.17 384.391C1220.27 384.348 1220.37 384.305 1220.48 384.263C1220.74 384.154 1221 384.045 1221.26 383.938C1221.34 383.907 1221.41 383.875 1221.49 383.844C1221.75 383.74 1222.01 383.637 1222.26 383.535C1222.36 383.497 1222.46 383.458 1222.55 383.42C1222.83 383.312 1223.1 383.204 1223.38 383.098C1223.45 383.072 1223.52 383.045 1223.58 383.02C1223.92 382.889 1224.27 382.759 1224.61 382.631C1224.68 382.606 1224.75 382.581 1224.81 382.556C1225.1 382.449 1225.39 382.342 1225.68 382.237C1225.77 382.206 1225.86 382.176 1225.94 382.145C1226.19 382.056 1226.44 381.968 1226.69 381.88C1226.82 381.835 1226.95 381.79 1227.08 381.745C1227.31 381.665 1227.54 381.585 1227.77 381.506C1227.89 381.465 1228.01 381.424 1228.13 381.384C1229.21 381.019 1230.3 380.666 1231.41 380.324C1231.47 380.307 1231.52 380.29 1231.58 380.272C1231.89 380.179 1232.19 380.085 1232.5 379.993C1232.58 379.968 1232.67 379.943 1232.75 379.918C1233.07 379.825 1233.39 379.731 1233.7 379.64C1233.75 379.627 1233.79 379.614 1233.84 379.601C1235.76 379.047 1237.72 378.527 1239.73 378.037C1239.79 378.021 1239.86 378.004 1239.92 377.988C1250.56 375.406 1262.46 373.68 1276.08 372.524C1276.22 372.512 1276.37 372.5 1276.52 372.487C1277.41 372.413 1278.31 372.34 1279.21 372.271C1279.32 372.262 1279.44 372.254 1279.55 372.245C1280.05 372.207 1280.56 372.168 1281.06 372.131C1281.18 372.122 1281.3 372.115 1281.42 372.106C1282.34 372.04 1283.26 371.976 1284.19 371.914C1284.38 371.902 1284.57 371.89 1284.76 371.878C1285.62 371.822 1286.49 371.768 1287.37 371.716C1287.49 371.708 1287.62 371.7 1287.75 371.692L1287.74 371.693C1304.44 370.708 1323.56 370.368 1345.8 370.25C1780.36 225.449 2131.68 201.936 2186.09 329.007C2189.73 337.502 2191.97 346.495 2192.85 355.945C2191.89 353.187 2190.79 350.483 2189.55 347.839C2166.48 298.953 2096.47 276.03 1993.5 276.603C1993.49 276.603 1993.48 276.602 1993.47 276.603C1990.49 276.619 1987.47 276.656 1984.43 276.712C1980.69 276.781 1976.9 276.88 1973.07 277.009C1970.61 277.092 1968.13 277.187 1965.64 277.295C1964.3 277.352 1962.96 277.413 1961.62 277.478C1956.64 277.716 1951.6 278.003 1946.5 278.338C1946.33 278.349 1946.16 278.36 1945.98 278.371C1943.54 278.533 1941.08 278.706 1938.61 278.89C1938.41 278.904 1938.21 278.919 1938.01 278.934C1928.93 279.613 1919.65 280.439 1910.19 281.411C1908.51 281.584 1906.83 281.761 1905.14 281.942C1892.91 283.256 1880.38 284.808 1867.55 286.598C1867.14 286.655 1866.73 286.713 1866.32 286.771C1862.32 287.333 1858.28 287.919 1854.22 288.527C1847.83 289.485 1841.38 290.499 1834.85 291.57C1830.8 292.234 1826.73 292.92 1822.63 293.628C1817.51 294.512 1812.35 295.43 1807.15 296.381C1803 297.14 1798.83 297.92 1794.63 298.722C1794.03 298.837 1793.42 298.954 1792.82 299.07C1790.32 299.551 1787.81 300.039 1785.29 300.534C1784.61 300.668 1783.93 300.803 1783.25 300.938C1780.69 301.445 1778.13 301.958 1775.56 302.479C1773.52 302.892 1771.49 303.308 1769.44 303.729C1763.53 304.951 1757.57 306.214 1751.56 307.516C1750.76 307.691 1749.95 307.866 1749.14 308.042C1746.2 308.682 1743.26 309.332 1740.3 309.991C1726.65 313.036 1712.78 316.285 1698.71 319.733C1694.44 320.78 1690.14 321.846 1685.83 322.93C1684.97 323.148 1684.1 323.367 1683.23 323.587C1666.89 327.716 1650.3 332.108 1633.45 336.761C1631.1 337.411 1628.74 338.066 1626.38 338.727C1620.08 340.485 1613.75 342.281 1607.39 344.111C1600.7 346.037 1593.97 348.003 1587.21 350.008C1575.77 353.398 1564.24 356.901 1552.61 360.517C1551.43 360.881 1550.26 361.247 1549.08 361.614C1543.85 363.246 1538.61 364.9 1533.35 366.576C1529.61 367.768 1525.86 368.972 1522.1 370.187H1700.83C1828.85 370.187 1892.85 370.187 1932.62 409.984C1972.39 449.782 1972.39 513.835 1972.39 591.941V656.258C1878.14 731.581 1757.51 810.529 1617.97 887.135C1618.55 868.231 1618 849.431 1616.29 830.859C1615.53 819.867 1614.43 809.061 1613.01 798.203H1367.14C1339.43 798.203 1316.05 798.204 1296 797.596C1295 797.565 1294.01 797.533 1293.02 797.499C1288.09 797.331 1283.37 797.124 1278.83 796.867C1277.93 796.816 1277.03 796.762 1276.14 796.707C1274.35 796.596 1272.6 796.477 1270.88 796.349C1267.43 796.093 1264.09 795.802 1260.87 795.471C1260.06 795.388 1259.26 795.303 1258.47 795.215C1256.48 794.995 1254.54 794.76 1252.64 794.507C1251.88 794.406 1251.12 794.3 1250.37 794.193C1230.54 791.36 1215.03 786.525 1201.53 778.272C1198.94 776.692 1196.42 775.027 1193.95 773.283C1193.4 772.896 1192.86 772.504 1192.32 772.108C1182.02 764.595 1172.84 755.672 1165.04 745.607C1162.78 742.694 1160.64 739.684 1158.62 736.586C1157.88 735.459 1157.16 734.321 1156.46 733.171C1155.53 731.642 1154.64 730.087 1153.79 728.503C1153.37 727.711 1152.95 726.911 1152.55 726.104C1138.2 697.401 1136.72 658.937 1136.56 591.817C1136.56 591.453 1136.57 591.09 1136.57 590.728C1136.58 586.379 1136.59 582.142 1136.62 578.014C1136.62 577.298 1136.62 576.586 1136.63 575.877C1136.63 575.552 1136.63 575.226 1136.64 574.902C1136.65 572.477 1136.67 570.088 1136.7 567.737C1136.7 567.301 1136.71 566.865 1136.71 566.431C1136.72 565.575 1136.73 564.724 1136.74 563.878C1136.75 563.365 1136.75 562.854 1136.76 562.345C1136.77 561.634 1136.78 560.927 1136.79 560.224C1136.8 559.631 1136.8 559.041 1136.81 558.454C1136.83 557.646 1136.84 556.84 1136.85 556.041C1136.86 555.665 1136.87 555.289 1136.87 554.915C1136.96 549.908 1137.08 545.08 1137.22 540.422C1137.23 540.078 1137.24 539.735 1137.25 539.393C1137.28 538.553 1137.31 537.719 1137.34 536.891C1137.35 536.594 1137.36 536.297 1137.37 536.002C1137.41 534.997 1137.44 534 1137.48 533.012C1137.49 532.911 1137.49 532.809 1137.5 532.708C1137.53 531.781 1137.57 530.86 1137.61 529.947C1137.62 529.718 1137.64 529.488 1137.65 529.26C1137.71 527.891 1137.77 526.537 1137.84 525.199C1137.88 524.487 1137.92 523.778 1137.96 523.074C1137.97 522.866 1137.98 522.658 1137.99 522.451C1138.03 521.903 1138.06 521.357 1138.09 520.813C1129.27 524.852 1120.44 528.936 1111.59 533.066C1107.42 535.014 1103.24 536.972 1099.07 538.94C1097.75 539.558 1096.44 540.176 1095.13 540.796C1079.7 548.088 1064.39 555.44 1049.23 562.844C1047.19 563.838 1045.16 564.833 1043.13 565.829C1041.75 566.504 1040.37 567.178 1039 567.854C1036.37 569.15 1033.73 570.448 1031.11 571.747C1026.68 573.936 1022.26 576.13 1017.86 578.328C1016.43 579.045 1014.99 579.762 1013.56 580.479C1011.55 581.486 1009.54 582.493 1007.54 583.501C1003.23 585.666 998.942 587.834 994.662 590.007C992.365 591.173 990.071 592.341 987.781 593.509C986.101 594.366 984.423 595.223 982.747 596.081C977.055 598.995 971.384 601.916 965.736 604.843C963.256 606.128 960.78 607.416 958.308 608.704C948.562 613.782 938.885 618.877 929.277 623.989C927.53 624.919 925.785 625.85 924.043 626.78C921.684 628.04 919.328 629.301 916.978 630.563C914.897 631.681 912.819 632.799 910.745 633.918C909.155 634.776 907.567 635.634 905.98 636.492C903.711 637.721 901.444 638.95 899.183 640.181C897.437 641.13 895.694 642.081 893.953 643.031C892.573 643.785 891.195 644.538 889.818 645.292C885.911 647.432 882.016 649.576 878.134 651.721C869.917 656.261 861.756 660.812 853.654 665.371C852.064 666.266 850.475 667.162 848.889 668.058C847.412 668.892 845.937 669.726 844.464 670.561C840.336 672.9 836.224 675.242 832.128 677.585C830.721 678.39 829.316 679.194 827.913 679.999C827.394 680.297 826.877 680.596 826.358 680.894H1091.7V683.82C1091.7 763.012 1152.61 827.965 1230.1 834.332V866.303C1230.1 980.669 1230.1 1037.85 1194.57 1073.38C1159.04 1108.91 1101.86 1108.91 987.492 1108.91H655.838C654.975 1108.91 654.109 1108.91 653.24 1108.91H620.691C519.147 1108.91 465.903 1108.91 432.41 1080.36C431.796 1079.84 431.187 1079.3 430.586 1078.76C430.169 1078.39 429.757 1078 429.347 1077.62C428.696 1077.01 428.051 1076.38 427.416 1075.75C427.147 1075.48 426.881 1075.21 426.616 1074.94C424.791 1073.06 423.069 1071.13 421.443 1069.12C419.796 1067.08 418.249 1064.97 416.795 1062.79C415.966 1061.54 415.168 1060.27 414.398 1058.97C413.491 1057.44 412.624 1055.88 411.797 1054.27C411.54 1053.77 411.286 1053.27 411.037 1052.76C402.681 1035.8 398.486 1014.6 396.38 987.085C395.786 987.645 395.193 988.204 394.603 988.764C388.26 994.778 382.096 1000.75 376.115 1006.69C369.259 1013.49 362.642 1020.24 356.271 1026.93C353.873 1029.45 351.508 1031.96 349.181 1034.46C341.634 1042.56 334.457 1050.58 327.658 1058.5C324.975 1061.62 322.349 1064.73 319.784 1067.82C315.377 1073.13 311.145 1078.4 307.094 1083.62C305.561 1085.59 304.055 1087.56 302.574 1089.52C301.118 1091.44 299.687 1093.36 298.281 1095.27C297.835 1095.88 297.391 1096.48 296.949 1097.09L295.977 1098.43C295.035 1099.73 294.105 1101.03 293.188 1102.32C291.275 1105.01 289.413 1107.7 287.604 1110.36C284.628 1114.74 281.793 1119.08 279.101 1123.38C278.665 1124.07 278.233 1124.77 277.806 1125.46C277.106 1126.59 276.416 1127.72 275.736 1128.85C275.455 1129.32 275.175 1129.78 274.896 1130.25C274.48 1130.95 274.066 1131.64 273.657 1132.34C271.752 1135.58 269.932 1138.79 268.196 1141.97C268.062 1142.22 267.928 1142.47 267.794 1142.71C267.172 1143.86 266.562 1145 265.963 1146.14C265.746 1146.56 265.53 1146.97 265.315 1147.38C264.887 1148.21 264.464 1149.03 264.048 1149.85C263.437 1151.06 262.839 1152.25 262.254 1153.45C259.245 1159.59 256.571 1165.63 254.241 1171.54C252.813 1175.17 251.514 1178.75 250.345 1182.29C250.122 1182.97 249.904 1183.64 249.69 1184.31C248.722 1187.36 247.85 1190.38 247.079 1193.36C246.948 1193.87 246.82 1194.37 246.694 1194.88C246.451 1195.86 246.219 1196.83 245.997 1197.8C245.701 1199.1 245.424 1200.4 245.167 1201.69C244.768 1203.68 244.415 1205.65 244.11 1207.61C243.108 1214.06 242.617 1220.32 242.651 1226.39C242.653 1226.72 242.656 1227.06 242.661 1227.4C242.682 1228.74 242.728 1230.07 242.801 1231.4C242.819 1231.73 242.839 1232.06 242.86 1232.39C242.903 1233.05 242.952 1233.7 243.008 1234.36C243.036 1234.69 243.066 1235.01 243.098 1235.34C243.347 1237.95 243.702 1240.52 244.162 1243.04C244.335 1243.99 244.522 1244.94 244.725 1245.87C245.4 1248.99 246.241 1252.05 247.251 1255.04C247.352 1255.34 247.454 1255.64 247.559 1255.94C248.08 1257.43 248.645 1258.9 249.251 1260.36C249.736 1261.52 250.248 1262.68 250.787 1263.82C251.057 1264.39 251.334 1264.96 251.616 1265.53C254.018 1270.33 256.883 1274.87 260.195 1279.16C260.294 1279.29 260.394 1279.41 260.493 1279.54C198.835 1267.44 157.328 1243.12 141.367 1205.85C105.512 1122.12 205.887 990.068 394.256 848.214V687.78H394.254V687.779H394.252C394.253 687.766 394.255 687.751 394.256 687.737V680.894H394.911C396.727 662.687 399.12 644.778 402.09 626.715C402.9 621.104 403.773 615.521 404.706 609.964C404.741 609.755 404.777 609.547 404.812 609.338C405.729 603.908 406.706 598.505 407.739 593.128C407.767 592.981 407.795 592.834 407.823 592.688C408.595 588.685 409.399 584.697 410.235 580.724C410.274 580.542 410.312 580.36 410.351 580.178C410.904 577.558 411.471 574.945 412.052 572.338C412.135 571.967 412.219 571.596 412.303 571.225C412.492 570.382 412.682 569.54 412.874 568.698C412.97 568.278 413.066 567.859 413.163 567.439C413.372 566.534 413.582 565.629 413.794 564.726C413.881 564.353 413.968 563.981 414.056 563.609C414.341 562.4 414.629 561.192 414.921 559.985C414.984 559.724 415.049 559.462 415.112 559.2C415.358 558.19 415.606 557.18 415.855 556.172C415.953 555.78 416.05 555.387 416.147 554.995C416.391 554.019 416.636 553.044 416.883 552.069C416.937 551.856 416.99 551.641 417.045 551.428C417.351 550.227 417.66 549.028 417.972 547.83C418.09 547.377 418.21 546.924 418.329 546.471C418.546 545.644 418.764 544.817 418.984 543.991C419.064 543.693 419.143 543.394 419.223 543.096C419.538 541.919 419.856 540.743 420.177 539.568C420.205 539.467 420.232 539.364 420.26 539.263C420.591 538.051 420.926 536.841 421.264 535.633C421.37 535.251 421.48 534.87 421.587 534.488C421.84 533.587 422.095 532.687 422.352 531.788C422.447 531.455 422.542 531.122 422.638 530.789C423.008 529.501 423.379 528.215 423.756 526.931V526.934C429.805 506.314 436.747 486.148 444.542 466.462C444.54 466.465 444.539 466.468 444.537 466.471C444.64 466.21 444.745 465.95 444.849 465.689C445.121 465.004 445.395 464.319 445.669 463.635C445.86 463.158 446.052 462.681 446.244 462.205C446.493 461.587 446.743 460.97 446.994 460.354C447.223 459.791 447.454 459.228 447.685 458.666C448.694 456.205 449.717 453.751 450.753 451.306C450.908 450.94 451.061 450.573 451.217 450.208C451.508 449.523 451.801 448.84 452.095 448.156C452.321 447.63 452.547 447.104 452.774 446.578C453.028 445.992 453.282 445.406 453.537 444.821C453.787 444.247 454.038 443.674 454.29 443.101C454.567 442.469 454.845 441.838 455.124 441.208C455.389 440.61 455.655 440.013 455.921 439.416C457.499 435.877 459.106 432.354 460.74 428.849C460.868 428.574 460.995 428.298 461.124 428.023C461.456 427.313 461.79 426.604 462.124 425.896C462.366 425.382 462.61 424.869 462.854 424.356C463.114 423.809 463.374 423.262 463.636 422.715C463.937 422.086 464.239 421.457 464.542 420.829C464.79 420.315 465.036 419.801 465.285 419.288C465.585 418.67 465.888 418.052 466.189 417.435C467.315 415.132 468.453 412.838 469.603 410.551C469.79 410.179 469.975 409.805 470.163 409.434C470.474 408.817 470.788 408.202 471.101 407.587C471.384 407.031 471.667 406.474 471.951 405.919C472.217 405.401 472.483 404.884 472.75 404.366C473.078 403.729 473.408 403.093 473.738 402.457C474.006 401.941 474.274 401.426 474.543 400.911C474.845 400.334 475.148 399.758 475.451 399.182C475.733 398.645 476.014 398.108 476.298 397.572C476.805 396.614 477.315 395.658 477.827 394.702C478.21 393.988 478.595 393.276 478.979 392.563C479.244 392.074 479.507 391.585 479.772 391.097C480.044 390.596 480.318 390.097 480.591 389.598C480.897 389.037 481.204 388.477 481.512 387.917C481.889 387.231 482.269 386.545 482.648 385.86C482.851 385.495 483.053 385.129 483.257 384.764C483.606 384.136 483.956 383.51 484.308 382.884C484.607 382.351 484.907 381.819 485.207 381.287C485.503 380.762 485.799 380.238 486.097 379.714C486.604 378.821 487.114 377.929 487.625 377.039C488.091 376.227 488.561 375.416 489.03 374.605C489.256 374.215 489.48 373.824 489.707 373.435C490.09 372.777 490.475 372.121 490.86 371.465C491.101 371.055 491.34 370.645 491.581 370.235C491.935 369.635 492.291 369.036 492.646 368.437C492.943 367.937 493.24 367.437 493.538 366.938C493.898 366.336 494.259 365.734 494.62 365.133C494.934 364.61 495.249 364.087 495.564 363.564C495.835 363.118 496.105 362.671 496.376 362.225C496.793 361.539 497.212 360.853 497.631 360.169C497.89 359.746 498.148 359.323 498.407 358.901C499.036 357.88 499.668 356.86 500.302 355.842C500.664 355.26 501.029 354.681 501.393 354.101C501.666 353.664 501.938 353.227 502.213 352.791C502.604 352.169 502.998 351.549 503.392 350.929C503.654 350.515 503.916 350.102 504.179 349.689C504.558 349.095 504.938 348.501 505.319 347.907C505.663 347.372 506.008 346.838 506.353 346.304C506.655 345.835 506.957 345.366 507.261 344.898C507.644 344.307 508.03 343.718 508.415 343.128C508.718 342.665 509.02 342.201 509.323 341.739C509.676 341.202 510.031 340.665 510.386 340.129C511.355 338.662 512.33 337.198 513.311 335.738C513.319 335.726 513.327 335.713 513.335 335.7C513.647 335.236 513.961 334.772 514.274 334.309C514.703 333.675 515.131 333.041 515.562 332.409C515.849 331.987 516.137 331.565 516.426 331.144C516.832 330.549 517.239 329.954 517.647 329.36C517.969 328.892 518.292 328.425 518.615 327.958C518.963 327.455 519.312 326.954 519.661 326.452C520.04 325.908 520.418 325.363 520.799 324.819C521.214 324.226 521.632 323.634 522.049 323.042C522.319 322.659 522.588 322.274 522.858 321.892C523.383 321.151 523.91 320.412 524.438 319.674C524.983 318.91 525.53 318.147 526.078 317.385C526.435 316.889 526.792 316.392 527.15 315.896C527.519 315.387 527.89 314.878 528.261 314.369C528.638 313.85 529.016 313.331 529.396 312.813C529.731 312.356 530.067 311.898 530.403 311.441C530.812 310.886 531.221 310.331 531.631 309.777C531.944 309.354 532.258 308.93 532.572 308.508C533.039 307.88 533.508 307.253 533.978 306.627C534.287 306.214 534.597 305.801 534.907 305.389C535.507 304.592 536.109 303.796 536.713 303.002C536.861 302.808 537.007 302.612 537.155 302.418C537.883 301.463 538.613 300.509 539.345 299.558C539.647 299.164 539.951 298.772 540.255 298.379C540.704 297.797 541.154 297.216 541.605 296.636C541.94 296.205 542.276 295.775 542.612 295.346C543.079 294.748 543.547 294.151 544.016 293.556C544.328 293.159 544.641 292.762 544.954 292.366C545.394 291.81 545.835 291.254 546.276 290.699C546.643 290.239 547.009 289.778 547.376 289.318C547.778 288.816 548.181 288.315 548.584 287.813C548.967 287.337 549.35 286.86 549.734 286.385C550.472 285.472 551.212 284.561 551.954 283.652L552.05 283.535C552.191 283.363 552.333 283.191 552.474 283.019C553.1 282.254 553.727 281.49 554.356 280.728C554.662 280.358 554.969 279.989 555.275 279.619C555.773 279.019 556.27 278.419 556.77 277.821C557.123 277.398 557.478 276.975 557.832 276.553C558.288 276.009 558.746 275.467 559.203 274.925C559.549 274.515 559.895 274.104 560.242 273.694C560.724 273.126 561.208 272.559 561.691 271.992C562.019 271.608 562.346 271.223 562.675 270.84C563.185 270.245 563.697 269.652 564.209 269.059C565.128 267.993 566.051 266.931 566.977 265.871C567.138 265.687 567.298 265.501 567.459 265.316C567.93 264.779 568.403 264.243 568.875 263.707C569.206 263.331 569.536 262.955 569.867 262.58C570.301 262.09 570.736 261.6 571.171 261.111C571.619 260.607 572.069 260.104 572.519 259.601C572.91 259.163 573.302 258.726 573.694 258.29C574.088 257.852 574.484 257.414 574.879 256.977C575.328 256.479 575.778 255.982 576.229 255.485C576.614 255.061 577.001 254.637 577.388 254.214C577.857 253.7 578.327 253.186 578.798 252.673C579.596 251.804 580.397 250.937 581.199 250.072C581.371 249.887 581.544 249.702 581.717 249.517C582.382 248.802 583.047 248.087 583.715 247.375C584.091 246.974 584.469 246.573 584.847 246.173C585.304 245.688 585.76 245.203 586.219 244.719C586.637 244.277 587.056 243.837 587.476 243.396C587.974 242.873 588.473 242.35 588.974 241.828C589.317 241.47 589.66 241.111 590.004 240.753C590.524 240.212 591.046 239.673 591.568 239.134C591.956 238.734 592.342 238.334 592.73 237.935C593.467 237.178 594.205 236.423 594.944 235.669C595.172 235.437 595.4 235.205 595.628 234.974C596.37 234.219 597.114 233.465 597.86 232.714C598.193 232.379 598.527 232.044 598.86 231.71C599.403 231.165 599.946 230.62 600.491 230.077C600.898 229.671 601.307 229.266 601.715 228.861C602.199 228.381 602.685 227.9 603.171 227.421C603.589 227.008 604.008 226.596 604.428 226.185C604.916 225.706 605.405 225.228 605.895 224.75C606.285 224.368 606.676 223.986 607.067 223.605C607.812 222.882 608.559 222.162 609.307 221.441C609.431 221.321 609.555 221.2 609.68 221.08C611.496 219.333 613.322 217.596 615.157 215.867C615.607 215.443 616.059 215.021 616.511 214.599C616.961 214.176 617.411 213.753 617.863 213.332C618.325 212.901 618.789 212.472 619.252 212.042C619.723 211.605 620.195 211.168 620.668 210.732C621.085 210.348 621.501 209.964 621.919 209.581C622.571 208.982 623.226 208.385 623.881 207.788C624.135 207.556 624.389 207.323 624.644 207.092C626.519 205.387 628.404 203.692 630.299 202.006C630.682 201.665 631.067 201.327 631.45 200.987C631.98 200.518 632.51 200.048 633.041 199.58C633.523 199.156 634.006 198.733 634.488 198.311C635.015 197.849 635.541 197.388 636.069 196.929C636.378 196.66 636.686 196.391 636.995 196.123C637.706 195.506 638.418 194.891 639.132 194.276C639.414 194.033 639.696 193.789 639.979 193.546C641.876 191.917 643.783 190.297 645.699 188.686C646.118 188.333 646.538 187.983 646.958 187.632C647.546 187.139 648.135 186.647 648.725 186.156C649.043 185.891 649.362 185.627 649.681 185.362C650.351 184.807 651.021 184.252 651.693 183.699C652.055 183.402 652.416 183.105 652.778 182.809C653.418 182.284 654.059 181.76 654.701 181.237C655.052 180.952 655.403 180.667 655.755 180.382C656.467 179.804 657.18 179.228 657.895 178.652C658.158 178.441 658.42 178.228 658.684 178.017C660.689 176.407 662.704 174.807 664.728 173.217C665.053 172.961 665.38 172.706 665.706 172.45C666.379 171.923 667.053 171.396 667.729 170.871C668.059 170.614 668.391 170.357 668.723 170.101C669.446 169.54 670.171 168.981 670.896 168.423C671.198 168.191 671.5 167.958 671.803 167.727C672.536 167.164 673.272 166.604 674.008 166.044C674.31 165.814 674.611 165.585 674.913 165.355C675.694 164.763 676.477 164.172 677.261 163.583C677.512 163.394 677.764 163.204 678.016 163.015C679.006 162.272 679.999 161.531 680.994 160.793C681.29 160.574 681.587 160.356 681.883 160.137C682.692 159.538 683.502 158.939 684.314 158.343C684.503 158.204 684.692 158.067 684.881 157.929C685.713 157.319 686.547 156.711 687.383 156.104C687.683 155.886 687.984 155.668 688.285 155.45C689.056 154.892 689.828 154.336 690.602 153.781C690.891 153.574 691.18 153.366 691.47 153.158C692.324 152.547 693.18 151.938 694.037 151.33C694.231 151.193 694.424 151.054 694.618 150.917C696.764 149.397 698.919 147.888 701.084 146.389C701.274 146.257 701.464 146.127 701.654 145.996C702.53 145.391 703.406 144.786 704.285 144.185C704.58 143.982 704.876 143.781 705.172 143.579C705.98 143.027 706.789 142.477 707.6 141.929C707.848 141.76 708.097 141.592 708.346 141.424C709.218 140.835 710.091 140.248 710.966 139.662C711.222 139.49 711.479 139.319 711.735 139.147C714.963 136.992 718.21 134.859 721.478 132.749C721.849 132.509 722.221 132.271 722.593 132.032C723.324 131.562 724.057 131.091 724.79 130.623C725.104 130.423 725.418 130.222 725.732 130.022C726.588 129.478 727.445 128.936 728.303 128.395C728.589 128.214 728.875 128.033 729.161 127.853C730.038 127.301 730.916 126.751 731.796 126.202C732.004 126.072 732.213 125.943 732.421 125.813C734.667 124.416 736.922 123.028 739.187 121.651C739.465 121.482 739.745 121.314 740.023 121.146C740.865 120.635 741.707 120.126 742.551 119.619C742.897 119.411 743.243 119.203 743.59 118.995C744.354 118.537 745.12 118.081 745.887 117.625C746.225 117.424 746.564 117.222 746.903 117.021C747.791 116.496 748.68 115.973 749.57 115.45C749.799 115.316 750.026 115.182 750.255 115.048C752.559 113.699 754.872 112.36 757.193 111.033C757.391 110.92 757.59 110.808 757.788 110.695C758.752 110.146 759.716 109.597 760.683 109.051C760.92 108.917 761.158 108.783 761.396 108.649C762.261 108.162 763.127 107.675 763.995 107.19C764.34 106.998 764.684 106.806 765.029 106.614C765.924 106.116 766.82 105.62 767.718 105.125C767.969 104.987 768.219 104.847 768.471 104.709C769.394 104.201 770.319 103.696 771.245 103.191C771.508 103.048 771.77 102.905 772.033 102.762C774.376 101.489 776.727 100.228 779.086 98.9766C779.248 98.8905 779.411 98.8047 779.573 98.7188C780.568 98.1921 781.564 97.6663 782.562 97.1436C782.882 96.9757 783.203 96.809 783.523 96.6416C784.355 96.2075 785.187 95.7751 786.021 95.3438C786.406 95.1441 786.792 94.9442 787.178 94.7451C787.948 94.3481 788.719 93.9524 789.49 93.5576C789.913 93.3413 790.336 93.1248 790.76 92.9092C791.733 92.4134 792.708 91.9189 793.685 91.4268C793.852 91.3422 794.02 91.2573 794.188 91.1729C796.596 89.9607 799.014 88.7602 801.439 87.5703C801.672 87.4561 801.906 87.3425 802.139 87.2285C803.088 86.764 804.039 86.3009 804.99 85.8398C805.312 85.6842 805.633 85.5293 805.955 85.374C806.84 84.9468 807.725 84.5209 808.612 84.0967C808.953 83.934 809.292 83.7707 809.633 83.6084C810.65 83.1235 811.669 82.6412 812.689 82.1602C812.847 82.086 813.004 82.0116 813.161 81.9375C815.65 80.7661 818.147 79.6061 820.652 78.458C820.79 78.3952 820.927 78.3333 821.064 78.2705C822.065 77.8125 823.068 77.3566 824.071 76.9023C824.464 76.7247 824.856 76.5472 825.249 76.3701C826.173 75.9538 827.098 75.5392 828.023 75.126C828.274 75.014 828.525 74.9018 828.776 74.79C829.725 74.368 830.674 73.948 831.625 73.5293C831.969 73.3777 832.313 73.2253 832.657 73.0742C835.105 72.0002 837.56 70.9367 840.022 69.8848C840.269 69.7795 840.516 69.6763 840.763 69.5713C841.779 69.1382 842.796 68.7056 843.815 68.2764C844.057 68.1747 844.299 68.0741 844.54 67.9727C845.509 67.5655 846.48 67.1596 847.451 66.7559C847.798 66.6118 848.144 66.4678 848.491 66.3242C849.417 65.941 850.344 65.5598 851.271 65.1797C851.622 65.0362 851.972 64.8921 852.322 64.749C853.342 64.3329 854.363 63.9192 855.385 63.5068C855.585 63.4261 855.784 63.3442 855.984 63.2637C859.78 61.7358 863.593 60.2348 867.422 58.7588C867.753 58.6312 868.084 58.5041 868.415 58.377C869.408 57.9958 870.402 57.6169 871.396 57.2393C871.633 57.1496 871.868 57.0591 872.104 56.9697C873.158 56.571 874.213 56.1751 875.269 55.7803C875.533 55.6813 875.798 55.5812 876.062 55.4824C879.981 54.0215 883.917 52.5882 887.87 51.1816C887.953 51.152 888.037 51.1224 888.12 51.0928C889.251 50.6909 890.382 50.291 891.516 49.8936C891.86 49.7728 892.204 49.6525 892.549 49.5322C893.575 49.1738 894.603 48.8177 895.632 48.4629C895.858 48.3849 896.084 48.3064 896.311 48.2285C900.272 46.866 904.25 45.5297 908.244 44.2217C908.422 44.1633 908.601 44.1061 908.779 44.0479C909.948 43.6661 911.117 43.2862 912.288 42.9092C912.446 42.8585 912.603 42.8084 912.761 42.7578C913.961 42.372 915.164 41.9883 916.367 41.6074C916.531 41.5556 916.695 41.5039 916.858 41.4521C918.006 41.0899 919.154 40.7298 920.304 40.3721C920.535 40.3002 920.766 40.228 920.997 40.1562C924.989 38.9177 928.998 37.7066 933.021 36.5225C933.289 36.4439 933.556 36.3664 933.823 36.2881C934.953 35.9568 936.084 35.6268 937.216 35.2998C937.375 35.254 937.534 35.2089 937.692 35.1631C938.898 34.8156 940.105 34.4696 941.313 34.127C941.509 34.0715 941.705 34.0163 941.9 33.9609C943.114 33.6177 944.329 33.2767 945.546 32.9385C945.691 32.898 945.837 32.8578 945.982 32.8174C950.062 31.6853 954.157 30.5812 958.268 29.5049C958.519 29.439 958.771 29.3733 959.022 29.3076C960.214 28.9969 961.406 28.6889 962.6 28.3828C962.746 28.3452 962.893 28.3071 963.04 28.2695C964.283 27.9514 965.528 27.6352 966.773 27.3223C966.926 27.2838 967.079 27.2454 967.232 27.207C970.013 26.5101 972.801 25.8257 975.595 25.1543C975.717 25.1248 975.84 25.0958 975.963 25.0664C977.287 24.7489 978.612 24.4348 979.938 24.123C979.976 24.1142 980.014 24.1046 980.052 24.0957C981.391 23.7812 982.732 23.4698 984.074 23.1611C984.224 23.1268 984.373 23.0929 984.522 23.0586C985.667 22.796 986.813 22.5357 987.96 22.2773C988.298 22.2011 988.637 22.1247 988.976 22.0488C993.135 21.1171 997.309 20.2133 1001.5 19.3379C1001.65 19.3067 1001.8 19.2763 1001.95 19.2451C1003.21 18.9808 1004.48 18.7181 1005.75 18.459C1005.93 18.4238 1006.1 18.3886 1006.27 18.3535C1007.6 18.0827 1008.94 17.815 1010.27 17.5498C1010.32 17.54 1010.37 17.5303 1010.42 17.5205C1014.74 16.6617 1019.09 15.8327 1023.44 15.0342C1023.58 15.0094 1023.71 14.9847 1023.85 14.96C1025.1 14.73 1026.36 14.5023 1027.62 14.2773C1027.92 14.2248 1028.21 14.1733 1028.51 14.1211C1029.73 13.9042 1030.95 13.6897 1032.18 13.4775C1032.29 13.4585 1032.4 13.4389 1032.51 13.4199C1033.86 13.1861 1035.21 12.9556 1036.57 12.7275C1036.68 12.708 1036.8 12.6885 1036.92 12.6689C1041.26 11.9403 1045.61 11.2411 1049.98 10.5723C1050.17 10.5428 1050.37 10.5137 1050.56 10.4844C1051.78 10.2977 1053.01 10.1136 1054.23 9.93164C1054.51 9.89104 1054.78 9.85091 1055.06 9.81055C1056.29 9.6282 1057.53 9.44804 1058.77 9.27051C1058.94 9.2463 1059.11 9.22139 1059.28 9.19727C1065.11 8.36456 1070.97 7.58492 1076.85 6.85938C1077.07 6.83288 1077.28 6.80663 1077.5 6.78027C1078.83 6.61608 1080.17 6.45549 1081.51 6.29688C1081.57 6.28983 1081.63 6.28243 1081.69 6.27539C1087.65 5.57155 1093.64 4.92215 1099.64 4.3291C1099.82 4.31176 1100 4.29557 1100.17 4.27832C1101.43 4.15478 1102.69 4.03369 1103.95 3.91504C1104.25 3.88676 1104.55 3.85808 1104.85 3.83008C1106.12 3.7121 1107.39 3.59741 1108.65 3.48438C1108.81 3.47007 1108.97 3.45563 1109.13 3.44141C1113.63 3.04348 1118.13 2.67562 1122.64 2.33984C1122.74 2.33251 1122.84 2.32566 1122.94 2.31836C1124.4 2.21024 1125.86 2.1055 1127.32 2.00391C1127.34 2.0028 1127.35 2.00111 1127.37 2C1128.71 1.90684 1130.06 1.81715 1131.4 1.72949C1131.76 1.70587 1132.12 1.6824 1132.49 1.65918C1138.43 1.27848 1144.39 0.951358 1150.37 0.678711C1150.52 0.672021 1150.66 0.665804 1150.81 0.65918C1152.23 0.595239 1153.65 0.534411 1155.06 0.476562C1155.15 0.473007 1155.24 0.469353 1155.33 0.46582C1156.72 0.409535 1158.11 0.356095 1159.5 0.305664C1159.7 0.298388 1159.9 0.291334 1160.1 0.28418C1161.54 0.232944 1162.98 0.183644 1164.42 0.138672C1164.47 0.13727 1164.51 0.136162 1164.56 0.134766C1166.11 0.0865865 1167.66 0.0409113 1169.21 0ZM3216.9 157C3292.13 157 3362 167.26 3426.48 187.778C3491.95 208.297 3545.69 237.121 3587.7 274.25L3514.42 438.399C3465.57 403.225 3418.18 377.821 3372.25 362.188C3326.33 346.554 3276.5 338.737 3222.76 338.737C3021.48 338.737 2920.84 455.987 2920.84 690.486C2920.84 929.871 3025.88 1049.56 3235.95 1049.56C3293.6 1049.56 3351.25 1042.24 3408.89 1027.58V797.478H3203.71V637.725H3614.08V1149.23C3563.27 1173.65 3503.67 1192.71 3435.28 1206.39C3367.86 1220.06 3298.49 1226.9 3227.16 1226.9C3116.75 1226.9 3020.99 1205.41 2939.9 1162.42C2858.8 1119.43 2796.26 1057.87 2752.3 977.749C2709.3 897.628 2687.81 801.874 2687.81 690.486C2687.81 582.03 2709.3 487.742 2752.3 407.621C2796.26 327.5 2857.82 265.945 2936.96 222.953C3017.09 178.985 3110.4 157 3216.9 157ZM4609.08 451.591C4660.86 451.591 4707.27 462.827 4748.31 485.3C4789.35 507.773 4821.1 538.062 4843.58 576.168V470.644H5061.95V1213.71H4843.58V1103.79C4821.1 1141.9 4789.35 1171.7 4748.31 1193.2C4707.27 1214.69 4660.86 1225.44 4609.08 1225.44C4544.59 1225.44 4487.43 1209.81 4437.6 1178.54C4388.74 1147.27 4350.15 1102.82 4321.81 1045.17C4294.46 986.543 4280.78 919.124 4280.78 842.912C4280.78 766.7 4294.46 698.792 4321.81 639.19C4350.15 579.589 4389.23 533.666 4439.06 501.422C4488.9 468.201 4545.57 451.591 4609.08 451.591ZM6683.83 470.644H6872.89V636.259H6683.83V924.986C6683.83 966.024 6694.57 996.313 6716.07 1015.85C6737.57 1034.42 6765.41 1043.7 6799.61 1043.7C6821.11 1043.7 6845.53 1040.28 6872.89 1033.44V1204.92C6837.72 1218.6 6795.21 1225.44 6745.38 1225.44C6653.54 1225.44 6583.19 1199.55 6534.33 1147.76C6486.46 1095.98 6462.52 1023.18 6462.52 929.383V636.259H6321.82V470.644H6462.52V296.234L6683.83 224.419V470.644ZM4162.96 453.056C4194.22 453.056 4220.6 457.941 4242.1 467.712L4240.63 669.968C4204.48 653.357 4168.33 645.053 4132.18 645.053C4073.55 645.053 4028.61 661.174 3997.34 693.418C3967.05 724.685 3951.91 768.653 3951.91 825.324V1213.71H3730.6V683.158C3730.6 604.015 3726.69 533.177 3718.87 470.644H3926.99L3941.65 598.152C3960.21 551.253 3989.03 515.589 4028.12 491.162C4068.18 465.758 4113.12 453.056 4162.96 453.056ZM5558.63 952.833L5755.02 472.109H5973.4L5646.57 1213.71H5458.97L5136.53 472.109H5368.1L5558.63 952.833ZM6257.73 1213.71H6036.42V470.644H6257.73V1213.71ZM4673.56 621.603C4618.85 621.603 4576.34 641.144 4546.05 680.228C4515.77 719.311 4500.62 773.539 4500.62 842.912C4500.62 912.285 4515.28 965.536 4544.59 1002.67C4574.88 1038.82 4617.87 1056.89 4673.56 1056.89C4728.28 1056.89 4770.29 1038.33 4799.61 1001.2C4828.92 964.07 4843.58 910.33 4843.58 839.98C4843.58 769.631 4828.92 715.891 4799.61 678.762C4770.29 640.656 4728.28 621.603 4673.56 621.603ZM1136.55 567.437C1136.55 575.963 1136.55 584.081 1136.56 591.817C1136.56 593.002 1136.56 594.195 1136.56 595.396C1136.56 596.592 1136.55 597.797 1136.55 599.01C1136.55 600.366 1136.55 601.733 1136.55 603.11C1136.55 599.678 1136.55 571.041 1136.55 567.437ZM6165.05 157.293C6220.28 157.293 6265.05 202.064 6265.05 257.293V265.411C6265.05 320.64 6220.28 365.411 6165.05 365.411H6129.09C6073.86 365.411 6029.09 320.64 6029.09 265.411V257.293C6029.09 202.064 6073.86 157.293 6129.09 157.293H6165.05Z" fill="url(#paint0_linear_16_1003)"/>
<defs>
<linearGradient id="paint0_linear_16_1003" x1="1338.4" y1="1490.7" x2="2609.53" y2="-356.195" gradientUnits="userSpaceOnUse">
<stop stop-color="#100F0E"/>
<stop offset="1" stop-color="#7A5D57"/>
</linearGradient>
</defs>
</svg>
