<svg width="3371" height="2142" viewBox="0 0 3371 2142" fill="none" xmlns="http://www.w3.org/2000/svg">
<path d="M3365.77 363.307C3406.48 545.04 3157.58 846.877 2741.61 1149.94C2739.96 1162.34 2738.11 1174.71 2736.07 1187.14C2662.87 1694.39 2226.44 2117.58 1667.68 2129.61C1667.58 2129.61 1667.48 2129.61 1667.38 2129.61L1667.36 2129.89L1513.88 2122.59V2000.35L1643.05 1984.83C1645.09 1984.27 1647.17 1983.79 1649.27 1983.38C1917.6 1932.28 2109.66 1717.67 2198.44 1491.25C2102.81 1543.39 2003.2 1594.07 1900.34 1642.57C1854.98 1663.96 1809.78 1684.61 1764.84 1704.52C1742.95 1715.37 1721.13 1726.04 1699.37 1736.53C1667.08 1752.09 1634.94 1767.24 1602.98 1781.98C1600.08 1783.32 1597.19 1784.65 1594.29 1785.98C1579.39 1792.83 1564.53 1799.59 1549.71 1806.25C1522.99 1818.27 1496.43 1829.99 1470.02 1841.41C1461.1 1845.27 1452.19 1849.09 1443.3 1852.89C1440.91 1853.9 1438.52 1854.92 1436.14 1855.93C1411.03 1866.6 1386.08 1877 1361.3 1887.11C1354.47 1889.9 1347.66 1892.67 1340.85 1895.41C1303.71 1910.4 1266.97 1924.75 1230.69 1938.45C1207.12 1947.35 1183.75 1955.98 1160.59 1964.33C1155.5 1966.16 1150.43 1967.98 1145.36 1969.79C1094.94 1987.77 1045.55 2004.42 997.345 2019.7C994.398 2020.63 991.456 2021.56 988.518 2022.49C961.226 2031.07 934.321 2039.2 907.835 2046.9C904.413 2047.89 900.998 2048.88 897.591 2049.85C886.091 2053.16 874.671 2056.37 863.334 2059.51C856.445 2061.41 849.587 2063.28 842.76 2065.12C830.952 2068.3 819.237 2071.38 807.618 2074.37C803.55 2075.42 799.493 2076.46 795.448 2077.48C779.873 2081.42 764.475 2085.18 749.259 2088.77C743.198 2090.2 737.166 2091.6 731.163 2092.98C729.966 2093.25 728.771 2093.52 727.576 2093.79C718.254 2095.91 709.003 2097.97 699.826 2099.95C696.144 2100.74 692.474 2101.53 688.815 2102.3C671.897 2105.88 655.234 2109.22 638.836 2112.33C622.009 2115.51 605.462 2118.44 589.205 2121.12C587.196 2121.46 585.191 2121.78 583.191 2122.11C581.613 2122.36 580.038 2122.61 578.466 2122.86C576.46 2123.18 574.458 2123.5 572.461 2123.81C569.726 2124.24 567 2124.66 564.282 2125.07C562.28 2125.37 560.281 2125.67 558.288 2125.97C555.602 2126.36 552.924 2126.76 550.255 2127.14C548.256 2127.43 546.262 2127.71 544.272 2127.99C538.164 2128.84 532.102 2129.66 526.086 2130.44C520.662 2131.14 515.275 2131.81 509.927 2132.45C509.659 2132.49 509.391 2132.52 509.123 2132.55C507.136 2132.79 505.155 2133.02 503.179 2133.25C497.34 2133.92 491.547 2134.55 485.802 2135.15C483.824 2135.35 481.852 2135.55 479.885 2135.75C475.299 2136.21 470.743 2136.64 466.218 2137.05C463.164 2137.32 460.125 2137.58 457.1 2137.84C454.787 2138.03 452.483 2138.22 450.187 2138.39C447.157 2138.63 444.143 2138.86 441.143 2139.07C438.894 2139.23 436.655 2139.38 434.423 2139.53C432.523 2139.66 430.629 2139.78 428.741 2139.89C427.523 2139.97 426.306 2140.04 425.093 2140.11C423.141 2140.22 421.195 2140.33 419.256 2140.43C417.099 2140.55 414.949 2140.66 412.808 2140.76C410.862 2140.85 408.922 2140.94 406.989 2141.02C405.893 2141.07 404.8 2141.12 403.708 2141.16C399.745 2141.32 395.81 2141.45 391.904 2141.57C390.833 2141.6 389.763 2141.63 388.696 2141.66C386.787 2141.7 384.884 2141.75 382.988 2141.79C379.03 2141.87 375.103 2141.93 371.206 2141.96C369.283 2141.98 367.368 2141.99 365.46 2141.99C364.496 2142 363.534 2142 362.574 2142C242.25 2141.97 168.978 2085.46 118.701 2037.28C44.7443 1980.62 4.54637 1900.23 0.236328 1847.19C0.152192 1846.38 0.0739912 1845.57 0 1844.75C219.968 2017.45 1000.56 1887.42 1853.69 1521.57C2746.97 1138.5 3398.33 634.747 3365.77 363.307ZM1633.77 0.0214844C1647.98 0.116958 1662.1 0.514514 1676.19 1.20801C1679.82 1.38666 1683.44 1.5849 1687.07 1.80273C1695.78 2.32562 1704.47 2.96139 1713.18 3.70801V164.052C1690.65 166.474 1668.65 169.82 1646.8 174.085C1571.6 188.404 1502.38 211.416 1439.76 241.519C1439.65 241.57 1439.54 241.621 1439.44 241.673C1436.96 242.866 1434.49 244.069 1432.03 245.284C1426.7 247.919 1421.42 250.606 1416.19 253.343C1413.81 254.587 1411.44 255.842 1409.08 257.107C1408.95 257.175 1408.83 257.243 1408.7 257.311C1405.02 259.287 1401.37 261.289 1397.74 263.315C1397.63 263.379 1397.51 263.443 1397.4 263.507C1393.8 265.519 1390.22 267.556 1386.68 269.616C1386.57 269.678 1386.46 269.74 1386.35 269.803C1384.06 271.134 1381.78 272.474 1379.52 273.825C1378.16 274.632 1376.81 275.443 1375.46 276.257C1373.23 277.605 1371.01 278.964 1368.79 280.331C1368.53 280.495 1368.26 280.659 1368 280.823C1364.58 282.941 1361.19 285.082 1357.82 287.245C1357.74 287.297 1357.66 287.349 1357.58 287.4C1354.17 289.593 1350.78 291.81 1347.42 294.049C1346.08 294.944 1344.74 295.843 1343.4 296.745C1341.26 298.193 1339.13 299.651 1337 301.117C1336.88 301.207 1336.75 301.296 1336.62 301.386C1334.46 302.876 1332.32 304.376 1330.19 305.886C1326.72 308.339 1323.28 310.817 1319.88 313.32C1316.65 315.692 1313.44 318.085 1310.27 320.5C1306.87 323.078 1303.51 325.681 1300.18 328.308C1298.16 329.897 1296.16 331.495 1294.16 333.102C1292.95 334.075 1291.75 335.052 1290.55 336.031C1287.5 338.522 1284.47 341.034 1281.47 343.565C1281.33 343.687 1281.18 343.81 1281.04 343.932C1279.11 345.558 1277.2 347.192 1275.3 348.835C1274.1 349.874 1272.9 350.918 1271.7 351.964C1266.84 356.22 1262.05 360.531 1257.33 364.895C1256.17 365.965 1255.02 367.038 1253.87 368.115C1252.06 369.807 1250.27 371.507 1248.48 373.215C1247.4 374.255 1246.31 375.298 1245.24 376.344C1243.42 378.107 1241.61 379.879 1239.81 381.658C1239.63 381.839 1239.45 382.021 1239.26 382.202C1237.56 383.895 1235.86 385.595 1234.18 387.303C1233.12 388.378 1232.06 389.457 1231.01 390.537C1229.29 392.297 1227.59 394.064 1225.9 395.839C1224.82 396.967 1223.75 398.098 1222.68 399.231C1220.98 401.047 1219.28 402.871 1217.59 404.701C1213.88 408.735 1210.22 412.804 1206.62 416.909C1205.01 418.736 1203.42 420.569 1201.84 422.409C1199.12 425.575 1196.43 428.762 1193.78 431.968C1192.24 433.826 1190.71 435.69 1189.19 437.562C1180.75 447.977 1172.65 458.597 1164.9 469.404C1163.54 471.293 1162.2 473.188 1160.87 475.088C1158.45 478.536 1156.06 482.002 1153.71 485.486C1152.49 487.295 1151.28 489.109 1150.08 490.927C1139.13 507.518 1128.97 524.512 1119.63 541.854C1118.65 543.675 1117.67 545.499 1116.71 547.327C1090.7 596.694 1071.24 648.824 1058.77 702.526C1056.09 714.059 1053.74 725.664 1051.71 737.33C1046.16 769.24 1043.05 801.604 1042.48 834.182C1042.44 836.399 1042.41 838.618 1042.4 840.838C1042.39 841.123 1042.39 841.409 1042.39 841.694C1042.38 843.998 1042.38 846.302 1042.39 848.607C1042.39 848.912 1042.39 849.217 1042.4 849.522C1042.41 851.841 1042.44 854.16 1042.48 856.479C1042.49 856.639 1042.49 856.798 1042.49 856.957C1042.54 859.329 1042.59 861.702 1042.67 864.076C1042.67 864.336 1042.68 864.596 1042.69 864.855C1042.77 867.379 1042.86 869.904 1042.97 872.43C1170.13 804.742 1307.62 738.699 1452.74 676.464C1506.94 653.222 1560.79 631.119 1614.11 610.177C1622.16 597.41 1631.57 585.621 1642.17 575.01C1642.19 574.987 1642.21 574.965 1642.24 574.942C1642.4 574.781 1642.56 574.619 1642.72 574.458C1643.6 573.584 1644.49 572.719 1645.38 571.861C1645.63 571.621 1645.89 571.381 1646.14 571.142C1648.43 568.972 1650.76 566.853 1653.15 564.791C1653.71 564.309 1654.27 563.832 1654.84 563.356C1655.42 562.864 1656.01 562.374 1656.59 561.888C1656.81 561.708 1657.03 561.529 1657.25 561.351C1660.37 558.797 1663.57 556.335 1666.84 553.968C1668.82 552.54 1670.82 551.147 1672.85 549.789C1675.15 548.248 1677.49 546.751 1679.86 545.303C1680.27 545.053 1680.68 544.804 1681.09 544.558C1681.25 544.464 1681.4 544.372 1681.56 544.278C1681.83 544.119 1682.1 543.959 1682.37 543.801C1682.54 543.702 1682.71 543.605 1682.88 543.507C1683.13 543.36 1683.39 543.213 1683.65 543.067C1683.81 542.975 1683.97 542.882 1684.13 542.79C1684.41 542.632 1684.7 542.476 1684.98 542.319C1685.14 542.231 1685.3 542.142 1685.46 542.054C1686.31 541.585 1687.16 541.123 1688.03 540.671C1688.12 540.625 1688.2 540.579 1688.29 540.533C1688.63 540.355 1688.98 540.178 1689.32 540.003C1689.49 539.916 1689.66 539.83 1689.83 539.744C1690.12 539.6 1690.4 539.457 1690.69 539.314C1690.84 539.24 1690.99 539.166 1691.14 539.092C1691.42 538.954 1691.69 538.817 1691.97 538.681C1692.17 538.585 1692.37 538.491 1692.56 538.396C1692.8 538.281 1693.05 538.166 1693.29 538.052C1693.49 537.955 1693.7 537.859 1693.9 537.764C1695.24 537.136 1696.6 536.526 1697.97 535.934C1698.11 535.871 1698.26 535.808 1698.41 535.745C1698.72 535.61 1699.04 535.477 1699.35 535.344C1699.5 535.284 1699.64 535.224 1699.78 535.165C1700.14 535.014 1700.51 534.864 1700.87 534.715C1700.98 534.671 1701.09 534.627 1701.19 534.583C1701.55 534.438 1701.91 534.295 1702.27 534.152C1702.4 534.099 1702.54 534.045 1702.67 533.992C1703.05 533.841 1703.44 533.691 1703.82 533.543C1703.92 533.507 1704.01 533.47 1704.1 533.435C1704.58 533.252 1705.06 533.071 1705.54 532.893C1705.63 532.858 1705.73 532.823 1705.82 532.788C1706.22 532.639 1706.63 532.492 1707.03 532.346C1707.15 532.302 1707.27 532.259 1707.39 532.216C1707.74 532.092 1708.09 531.969 1708.43 531.847C1708.61 531.784 1708.79 531.721 1708.97 531.659C1709.29 531.548 1709.61 531.436 1709.94 531.326C1710.1 531.27 1710.27 531.213 1710.43 531.156C1711.94 530.648 1713.46 530.156 1715 529.681C1715.08 529.656 1715.16 529.633 1715.24 529.608C1715.67 529.478 1716.1 529.348 1716.53 529.22C1716.64 529.185 1716.76 529.149 1716.88 529.114C1717.32 528.984 1717.76 528.855 1718.2 528.728C1718.26 528.709 1718.32 528.69 1718.39 528.672C1721.06 527.901 1723.79 527.178 1726.59 526.495C1726.68 526.473 1726.77 526.449 1726.86 526.427C1741.67 522.83 1758.24 520.427 1777.21 518.817C1777.42 518.8 1777.62 518.783 1777.83 518.766C1779.07 518.662 1780.32 518.561 1781.58 518.464C1781.73 518.452 1781.89 518.441 1782.05 518.429C1782.75 518.375 1783.45 518.322 1784.16 518.271C1784.32 518.258 1784.49 518.247 1784.65 518.235C1785.93 518.143 1787.22 518.053 1788.51 517.968C1788.78 517.95 1789.04 517.934 1789.31 517.917C1790.51 517.839 1791.72 517.763 1792.94 517.69C1793.12 517.68 1793.29 517.67 1793.47 517.659L1793.46 517.66C1816.72 516.288 1843.35 515.815 1874.31 515.651C2479.53 313.984 2968.83 281.237 3044.61 458.211C3049.68 470.042 3052.79 482.568 3054.02 495.729C3052.69 491.886 3051.16 488.121 3049.42 484.438C3017.3 416.355 2919.79 384.429 2776.38 385.227C2776.37 385.227 2776.36 385.226 2776.35 385.227C2772.19 385.25 2767.99 385.301 2763.75 385.379C2758.54 385.475 2753.26 385.613 2747.94 385.792C2744.51 385.907 2741.05 386.041 2737.58 386.19C2735.72 386.27 2733.85 386.356 2731.98 386.445C2725.05 386.778 2718.03 387.178 2710.93 387.644C2710.69 387.659 2710.45 387.675 2710.21 387.69C2706.8 387.915 2703.38 388.156 2699.93 388.411C2699.66 388.432 2699.38 388.452 2699.1 388.473C2686.46 389.419 2673.54 390.57 2660.36 391.924C2658.02 392.164 2655.67 392.411 2653.32 392.664C2636.29 394.493 2618.84 396.655 2600.97 399.147C2600.4 399.227 2599.83 399.307 2599.26 399.388C2593.68 400.171 2588.07 400.986 2582.41 401.834C2573.51 403.168 2564.52 404.581 2555.43 406.072C2549.79 406.997 2544.12 407.953 2538.41 408.938C2531.28 410.169 2524.09 411.447 2516.85 412.771C2511.08 413.829 2505.26 414.916 2499.42 416.032C2498.58 416.193 2497.73 416.355 2496.89 416.518C2493.41 417.186 2489.92 417.867 2486.41 418.557C2485.46 418.744 2484.51 418.931 2483.56 419.119C2480 419.824 2476.43 420.539 2472.85 421.266C2470.02 421.84 2467.18 422.42 2464.33 423.007C2456.1 424.708 2447.79 426.467 2439.43 428.279C2438.31 428.523 2437.18 428.768 2436.05 429.014C2431.97 429.906 2427.86 430.809 2423.75 431.728C2404.73 435.968 2385.42 440.493 2365.82 445.296C2359.87 446.754 2353.89 448.238 2347.89 449.748C2346.68 450.052 2345.47 450.356 2344.26 450.662C2321.51 456.412 2298.4 462.53 2274.94 469.01C2271.66 469.915 2268.37 470.828 2265.08 471.748C2256.32 474.197 2247.5 476.699 2238.64 479.248C2229.33 481.93 2219.96 484.667 2210.54 487.459C2194.61 492.181 2178.54 497.061 2162.34 502.096C2160.71 502.604 2159.07 503.113 2157.43 503.624C2150.15 505.896 2142.85 508.199 2135.52 510.534C2130.31 512.194 2125.09 513.871 2119.85 515.562H2368.78C2547.07 515.563 2636.21 515.563 2691.6 570.989C2746.98 626.416 2746.98 715.624 2746.98 824.403V913.979C2615.72 1018.88 2447.71 1128.83 2253.38 1235.52C2254.19 1209.2 2253.42 1183.01 2251.04 1157.15C2249.97 1141.84 2248.44 1126.79 2246.47 1111.67H1904.04C1865.45 1111.67 1832.89 1111.67 1804.97 1110.82C1803.57 1110.78 1802.19 1110.73 1800.81 1110.69C1793.95 1110.45 1787.37 1110.17 1781.05 1109.81C1779.79 1109.74 1778.54 1109.66 1777.3 1109.58C1774.81 1109.43 1772.37 1109.26 1769.97 1109.08C1765.17 1108.73 1760.52 1108.32 1756.03 1107.86C1754.91 1107.75 1753.79 1107.63 1752.69 1107.51C1749.93 1107.2 1747.22 1106.87 1744.57 1106.52C1743.51 1106.38 1742.46 1106.23 1741.42 1106.08C1713.79 1102.14 1692.19 1095.4 1673.39 1083.91C1669.79 1081.71 1666.27 1079.39 1662.84 1076.96C1662.07 1076.42 1661.31 1075.88 1660.56 1075.33C1646.22 1064.86 1633.44 1052.43 1622.57 1038.42C1619.43 1034.36 1616.44 1030.17 1613.63 1025.85C1612.6 1024.28 1611.6 1022.7 1610.62 1021.1C1609.32 1018.97 1608.08 1016.8 1606.9 1014.6C1606.31 1013.49 1605.74 1012.38 1605.17 1011.26C1585.19 971.284 1583.13 917.72 1582.91 824.259C1582.91 823.743 1582.91 823.227 1582.92 822.713C1582.93 816.656 1582.95 810.756 1582.99 805.007C1582.99 804.01 1583 803.018 1583 802.03C1583.01 801.577 1583.01 801.124 1583.01 800.673C1583.04 797.295 1583.06 793.968 1583.1 790.694C1583.1 790.086 1583.11 789.48 1583.12 788.875C1583.13 787.683 1583.14 786.497 1583.16 785.319C1583.16 784.605 1583.17 783.894 1583.18 783.185C1583.2 782.195 1583.21 781.209 1583.22 780.229C1583.24 779.405 1583.25 778.583 1583.26 777.765C1583.28 776.639 1583.3 775.519 1583.31 774.405C1583.32 773.881 1583.33 773.357 1583.34 772.836C1583.47 765.863 1583.62 759.139 1583.83 752.651C1583.84 752.173 1583.86 751.695 1583.87 751.219C1583.91 750.049 1583.95 748.887 1583.99 747.732C1584 747.32 1584.02 746.907 1584.03 746.496C1584.09 745.097 1584.14 743.708 1584.19 742.331C1584.2 742.19 1584.21 742.049 1584.21 741.908C1584.26 740.617 1584.32 739.334 1584.38 738.062C1584.39 737.743 1584.4 737.424 1584.42 737.106C1584.51 735.2 1584.6 733.314 1584.7 731.45C1584.75 730.458 1584.8 729.471 1584.86 728.491C1584.87 728.201 1584.89 727.912 1584.9 727.623C1584.95 726.86 1584.99 726.1 1585.04 725.344C1572.76 730.968 1560.45 736.656 1548.13 742.408C1542.32 745.121 1536.51 747.848 1530.69 750.59C1528.86 751.45 1527.04 752.31 1525.21 753.173C1503.71 763.328 1482.4 773.568 1461.28 783.879C1458.44 785.263 1455.61 786.65 1452.78 788.037C1450.86 788.977 1448.95 789.916 1447.04 790.856C1443.36 792.662 1439.7 794.471 1436.04 796.28C1429.88 799.329 1423.73 802.384 1417.59 805.445C1415.6 806.443 1413.6 807.442 1411.6 808.441C1408.8 809.843 1406.01 811.246 1403.22 812.649C1397.22 815.664 1391.25 818.685 1385.28 821.711C1382.08 823.335 1378.89 824.961 1375.7 826.588C1373.36 827.781 1371.02 828.975 1368.69 830.17C1360.76 834.228 1352.86 838.296 1345 842.372C1341.54 844.163 1338.1 845.956 1334.65 847.75C1321.08 854.822 1307.6 861.919 1294.22 869.039C1291.79 870.334 1289.36 871.629 1286.93 872.925C1283.65 874.68 1280.37 876.437 1277.09 878.194C1274.19 879.75 1271.3 881.308 1268.41 882.866C1266.2 884.061 1263.98 885.255 1261.77 886.451C1258.61 888.162 1255.46 889.875 1252.31 891.589C1249.88 892.911 1247.45 894.234 1245.03 895.558C1243.1 896.607 1241.18 897.657 1239.27 898.707C1233.82 901.688 1228.4 904.673 1222.99 907.66C1211.55 913.983 1200.18 920.321 1188.9 926.671C1186.68 927.918 1184.47 929.166 1182.26 930.414C1180.21 931.575 1178.15 932.737 1176.1 933.899C1170.35 937.157 1164.62 940.418 1158.92 943.682C1156.96 944.802 1155 945.924 1153.05 947.045C1152.33 947.46 1151.61 947.877 1150.88 948.292H1520.43V952.369C1520.43 1062.66 1605.26 1153.13 1713.18 1161.99V1301.79C1713.18 1416.16 1713.18 1473.34 1677.65 1508.87C1642.13 1544.4 1584.94 1544.4 1470.58 1544.4H775.521C743.833 1544.4 716.847 1544.4 693.698 1543.53C690.043 1543.39 686.484 1543.23 683.017 1543.05C671.459 1542.44 660.926 1541.55 651.292 1540.25C650.81 1540.19 650.331 1540.12 649.854 1540.06C619.787 1535.85 598.569 1527.56 582.248 1511.24C580.435 1509.42 578.72 1507.55 577.1 1505.61C576.637 1505.06 576.181 1504.5 575.733 1503.93C573.942 1501.67 572.271 1499.32 570.713 1496.88C570.518 1496.57 570.325 1496.27 570.134 1495.96C566.881 1490.71 564.132 1485.03 561.807 1478.82C561.67 1478.46 561.534 1478.09 561.4 1477.72C560.33 1474.78 559.353 1471.72 558.46 1468.53C558.348 1468.13 558.238 1467.73 558.129 1467.33C551.95 1444.52 549.995 1415.46 549.376 1377.25C540.611 1385.56 532.092 1393.83 523.822 1402.03C514.273 1411.51 505.057 1420.91 496.184 1430.22C492.844 1433.73 489.552 1437.22 486.31 1440.71C475.799 1451.99 465.804 1463.16 456.335 1474.18C452.598 1478.53 448.941 1482.86 445.369 1487.17C439.231 1494.57 433.338 1501.91 427.695 1509.17C425.561 1511.92 423.462 1514.66 421.399 1517.38C419.372 1520.07 417.379 1522.74 415.421 1525.4C414.799 1526.25 414.18 1527.09 413.565 1527.93L412.212 1529.8C410.901 1531.61 409.605 1533.41 408.327 1535.22C405.663 1538.97 403.07 1542.7 400.55 1546.42C396.406 1552.52 392.457 1558.56 388.708 1564.55C388.102 1565.52 387.5 1566.48 386.904 1567.45C385.93 1569.02 384.969 1570.6 384.022 1572.17C383.63 1572.82 383.24 1573.47 382.853 1574.12C382.273 1575.09 381.697 1576.06 381.128 1577.02C378.475 1581.53 375.938 1586.01 373.521 1590.44C373.334 1590.78 373.148 1591.13 372.962 1591.47C372.096 1593.07 371.245 1594.66 370.41 1596.25C370.108 1596.83 369.808 1597.4 369.51 1597.98C368.913 1599.13 368.324 1600.27 367.744 1601.42C366.893 1603.09 366.061 1604.76 365.245 1606.43C361.055 1614.98 357.331 1623.38 354.086 1631.62C352.097 1636.68 350.287 1641.67 348.659 1646.6C348.349 1647.54 348.045 1648.48 347.748 1649.41C346.399 1653.66 345.186 1657.86 344.111 1662.01C343.929 1662.72 343.75 1663.42 343.575 1664.13C343.236 1665.49 342.912 1666.85 342.604 1668.2C342.191 1670.01 341.806 1671.81 341.447 1673.61C340.892 1676.38 340.401 1679.13 339.977 1681.86C338.58 1690.84 337.897 1699.56 337.944 1708.01C337.947 1708.48 337.952 1708.95 337.959 1709.41C337.988 1711.28 338.051 1713.14 338.152 1714.99C338.178 1715.45 338.206 1715.91 338.235 1716.37C338.295 1717.28 338.364 1718.2 338.441 1719.11C338.48 1719.57 338.522 1720.02 338.565 1720.48C338.913 1724.11 339.407 1727.69 340.048 1731.21C340.288 1732.53 340.55 1733.84 340.832 1735.15C341.772 1739.49 342.944 1743.75 344.351 1747.92C344.491 1748.34 344.634 1748.75 344.779 1749.17C345.506 1751.24 346.291 1753.29 347.136 1755.32C347.811 1756.94 348.524 1758.55 349.275 1760.15C349.651 1760.94 350.036 1761.73 350.43 1762.52C353.775 1769.2 357.764 1775.53 362.378 1781.51C362.515 1781.68 362.655 1781.86 362.793 1782.04C276.92 1765.18 219.113 1731.32 196.885 1679.41C146.949 1562.79 286.742 1378.88 549.088 1181.32V957.883H549.084C549.085 957.869 549.087 957.854 549.088 957.84V948.292H550.002C550.318 945.122 550.646 941.959 550.987 938.801C553.205 918.275 555.953 897.971 559.232 877.551C559.485 875.98 559.741 874.409 559.999 872.837C560.171 871.644 560.346 870.453 560.522 869.262C560.611 868.664 560.7 868.067 560.789 867.47C561.158 865.005 561.536 862.544 561.922 860.087C561.994 859.63 562.065 859.173 562.138 858.716C562.296 857.717 562.456 856.719 562.617 855.722C562.758 854.851 562.901 853.98 563.044 853.11C563.132 852.576 563.219 852.041 563.308 851.507C563.405 850.918 563.504 850.329 563.603 849.74C564.021 847.245 564.449 844.754 564.885 842.267C564.944 841.927 565.004 841.587 565.063 841.247C565.516 838.683 565.978 836.124 566.449 833.568C566.536 833.098 566.623 832.627 566.71 832.157C566.875 831.269 567.042 830.382 567.209 829.495C567.364 828.675 567.52 827.856 567.677 827.037C567.827 826.25 567.978 825.463 568.13 824.677C568.201 824.309 568.272 823.941 568.344 823.573C568.584 822.339 568.826 821.106 569.071 819.874C569.168 819.388 569.267 818.902 569.364 818.416C569.513 817.675 569.66 816.933 569.811 816.192C569.909 815.708 570.007 815.224 570.105 814.74C570.352 813.53 570.601 812.321 570.853 811.113C570.915 810.811 570.98 810.508 571.043 810.206C571.222 809.349 571.403 808.491 571.584 807.635C571.716 807.009 571.849 806.384 571.982 805.759C572.211 804.69 572.441 803.621 572.673 802.554C572.781 802.056 572.89 801.559 572.999 801.062C573.186 800.206 573.373 799.351 573.562 798.497C573.633 798.177 573.704 797.856 573.775 797.536C574.062 796.247 574.352 794.958 574.644 793.671C574.706 793.395 574.769 793.12 574.832 792.845C575.056 791.862 575.28 790.88 575.507 789.899C575.618 789.419 575.729 788.938 575.841 788.458C576.099 787.348 576.357 786.238 576.618 785.13C576.715 784.72 576.814 784.31 576.911 783.899C577.109 783.066 577.307 782.233 577.507 781.401C577.64 780.848 577.773 780.296 577.906 779.743C578.156 778.712 578.406 777.68 578.658 776.65C578.783 776.14 578.91 775.63 579.036 775.12C579.215 774.396 579.395 773.672 579.575 772.948C579.764 772.191 579.954 771.433 580.145 770.677C580.352 769.852 580.559 769.028 580.769 768.204C580.897 767.7 581.026 767.196 581.155 766.692C581.352 765.925 581.55 765.159 581.748 764.393C581.873 763.911 581.997 763.429 582.122 762.947C582.416 761.82 582.711 760.693 583.009 759.567C583.126 759.125 583.244 758.683 583.361 758.241C583.58 757.417 583.8 756.593 584.021 755.771C584.133 755.351 584.245 754.931 584.358 754.512C584.678 753.329 584.999 752.147 585.322 750.966C585.422 750.602 585.523 750.239 585.623 749.875C585.891 748.901 586.16 747.928 586.431 746.956C586.515 746.654 586.598 746.352 586.683 746.051C587.001 744.91 587.322 743.77 587.645 742.632C587.784 742.14 587.924 741.649 588.064 741.157C588.324 740.247 588.585 739.336 588.847 738.427C588.913 738.198 588.978 737.969 589.044 737.74C589.387 736.551 589.733 735.363 590.081 734.177C590.112 734.072 590.142 733.967 590.173 733.862V733.864C599.001 703.772 609.194 674.371 620.689 645.708C620.845 645.319 621.001 644.93 621.157 644.542C621.595 643.454 622.034 642.368 622.476 641.282C622.645 640.867 622.814 640.451 622.983 640.036C623.456 638.879 623.931 637.722 624.408 636.567C624.592 636.122 624.778 635.677 624.963 635.231C625.38 634.225 625.798 633.22 626.219 632.216C626.344 631.916 626.47 631.615 626.596 631.315C627.086 630.148 627.578 628.982 628.072 627.817C628.222 627.466 628.372 627.114 628.521 626.763C629.044 625.537 629.568 624.311 630.095 623.088C630.215 622.809 630.336 622.529 630.457 622.25C630.932 621.151 631.41 620.052 631.889 618.955C632.09 618.493 632.293 618.03 632.495 617.568C632.903 616.639 633.311 615.71 633.722 614.782C633.928 614.315 634.135 613.848 634.342 613.382C634.839 612.262 635.337 611.142 635.839 610.024C635.995 609.676 636.153 609.328 636.31 608.979C636.78 607.935 637.252 606.89 637.726 605.848C637.919 605.422 638.112 604.997 638.306 604.572C638.787 603.516 639.271 602.461 639.756 601.407C639.903 601.087 640.051 600.766 640.199 600.446C640.724 599.309 641.251 598.173 641.78 597.039C642.024 596.517 642.269 595.995 642.514 595.473C642.902 594.643 643.293 593.814 643.684 592.986C644.02 592.275 644.357 591.563 644.695 590.853C645.071 590.063 645.446 589.274 645.823 588.485C645.996 588.124 646.169 587.763 646.342 587.402C646.862 586.319 647.384 585.238 647.908 584.157C648.16 583.637 648.414 583.117 648.667 582.598C649.801 580.27 650.944 577.947 652.096 575.63C652.386 575.046 652.676 574.462 652.968 573.879C653.444 572.927 653.92 571.975 654.398 571.024C654.549 570.726 654.699 570.429 654.85 570.131C655.449 568.944 656.051 567.757 656.655 566.573C656.842 566.207 657.031 565.841 657.219 565.475C657.691 564.553 658.164 563.632 658.639 562.712C658.884 562.236 659.13 561.761 659.376 561.286C659.883 560.308 660.392 559.33 660.902 558.354C661.098 557.98 661.292 557.605 661.488 557.231C662.06 556.142 662.633 555.053 663.208 553.966C663.48 553.452 663.754 552.938 664.027 552.425C665.218 550.184 666.417 547.948 667.625 545.718C667.822 545.355 668.019 544.991 668.216 544.628C668.821 543.514 669.43 542.401 670.04 541.289C670.252 540.902 670.464 540.515 670.677 540.129C671.106 539.349 671.537 538.569 671.969 537.79C672.355 537.092 672.743 536.394 673.132 535.697C673.587 534.88 674.044 534.062 674.502 533.246C674.699 532.895 674.895 532.543 675.093 532.192C675.723 531.072 676.357 529.954 676.991 528.837C677.188 528.49 677.386 528.144 677.583 527.798C678.113 526.868 678.644 525.939 679.177 525.011C679.502 524.445 679.827 523.879 680.153 523.314C680.655 522.446 681.157 521.577 681.661 520.71C681.826 520.426 681.991 520.141 682.156 519.857C682.793 518.764 683.432 517.672 684.073 516.581C684.294 516.206 684.515 515.83 684.736 515.455C685.392 514.344 686.048 513.233 686.708 512.125C686.887 511.824 687.068 511.523 687.247 511.223C687.783 510.325 688.32 509.428 688.858 508.532C689.12 508.096 689.382 507.659 689.645 507.224C690.219 506.271 690.796 505.319 691.374 504.368C691.656 503.905 691.938 503.442 692.221 502.979C692.817 502.002 693.416 501.024 694.016 500.049C694.286 499.609 694.557 499.17 694.828 498.73C695.319 497.935 695.812 497.141 696.305 496.348C696.607 495.86 696.91 495.373 697.214 494.887C697.789 493.964 698.367 493.043 698.945 492.123C699.173 491.76 699.401 491.397 699.629 491.035C700.279 490.005 700.929 488.975 701.583 487.947C701.832 487.556 702.083 487.165 702.332 486.774C702.895 485.891 703.459 485.008 704.025 484.127C704.308 483.687 704.592 483.247 704.876 482.807C705.409 481.981 705.943 481.155 706.478 480.331C706.753 479.907 707.027 479.483 707.303 479.06C707.921 478.111 708.542 477.163 709.163 476.216C709.496 475.708 709.83 475.201 710.164 474.694C710.802 473.726 711.442 472.758 712.084 471.792C712.339 471.408 712.595 471.026 712.851 470.643C713.372 469.86 713.894 469.077 714.418 468.296C714.634 467.973 714.851 467.65 715.067 467.327C715.812 466.219 716.559 465.113 717.309 464.009C717.548 463.655 717.79 463.302 718.03 462.949C718.707 461.955 719.383 460.961 720.063 459.97C720.27 459.669 720.477 459.369 720.684 459.068C721.21 458.303 721.737 457.539 722.265 456.775C722.722 456.114 723.182 455.453 723.642 454.792C724.204 453.983 724.767 453.175 725.332 452.368C725.533 452.082 725.733 451.795 725.934 451.509C726.661 450.472 727.391 449.437 728.122 448.403C728.378 448.042 728.634 447.68 728.891 447.318C729.48 446.488 730.071 445.659 730.662 444.831C730.962 444.412 731.261 443.993 731.562 443.574C732.203 442.679 732.847 441.785 733.492 440.892C733.741 440.546 733.99 440.2 734.24 439.855C734.976 438.839 735.713 437.825 736.452 436.812C736.733 436.427 737.015 436.043 737.297 435.658C737.826 434.936 738.355 434.214 738.886 433.493C739.32 432.904 739.756 432.315 740.191 431.727C740.828 430.866 741.465 430.006 742.104 429.147C742.248 428.955 742.391 428.763 742.534 428.571C743.322 427.516 744.111 426.463 744.902 425.411C745.166 425.061 745.43 424.712 745.694 424.362C746.46 423.348 747.227 422.333 747.997 421.321C748.143 421.13 748.289 420.939 748.435 420.748C749.116 419.853 749.8 418.96 750.485 418.067C750.733 417.744 750.981 417.42 751.229 417.098C751.966 416.14 752.706 415.184 753.446 414.229C753.735 413.857 754.024 413.484 754.313 413.112C755.062 412.151 755.812 411.189 756.563 410.23C756.849 409.866 757.136 409.503 757.422 409.14C758.014 408.387 758.606 407.634 759.2 406.883C759.728 406.215 760.258 405.55 760.788 404.884C761.245 404.309 761.702 403.734 762.16 403.16C762.52 402.709 762.881 402.259 763.242 401.809C763.928 400.954 764.615 400.1 765.304 399.247C765.672 398.791 766.041 398.336 766.41 397.881C766.997 397.157 767.585 396.433 768.174 395.71C768.485 395.328 768.796 394.946 769.108 394.564C769.773 393.752 770.44 392.941 771.106 392.131C771.496 391.657 771.886 391.183 772.277 390.71C772.934 389.915 773.592 389.12 774.252 388.327C774.638 387.863 775.026 387.399 775.413 386.936C777.053 384.971 778.702 383.012 780.357 381.06C780.651 380.714 780.944 380.368 781.237 380.022C782.047 379.071 782.859 378.121 783.672 377.172C783.944 376.854 784.217 376.538 784.489 376.221C785.277 375.304 786.066 374.388 786.857 373.475C787.151 373.136 787.445 372.797 787.739 372.459C788.37 371.732 789.003 371.006 789.636 370.281C789.975 369.893 790.314 369.505 790.653 369.117C791.424 368.238 792.196 367.359 792.97 366.482C793.222 366.196 793.476 365.91 793.729 365.624C794.616 364.621 795.506 363.618 796.397 362.618C796.521 362.48 796.645 362.341 796.769 362.203C797.624 361.245 798.482 360.289 799.342 359.334C799.562 359.089 799.782 358.844 800.003 358.6C800.83 357.683 801.659 356.767 802.489 355.853C802.732 355.585 802.975 355.318 803.218 355.051C804.14 354.038 805.065 353.027 805.992 352.018C806.113 351.886 806.234 351.754 806.355 351.622C807.082 350.832 807.81 350.044 808.539 349.256C809.104 348.645 809.67 348.036 810.236 347.427C810.822 346.797 811.408 346.168 811.995 345.54C812.332 345.18 812.669 344.82 813.006 344.46C813.8 343.613 814.597 342.766 815.395 341.922C815.801 341.491 816.209 341.062 816.616 340.632C818.377 338.775 820.145 336.923 821.92 335.079C822.259 334.727 822.599 334.374 822.938 334.021C823.776 333.154 824.616 332.287 825.457 331.422C825.671 331.202 825.886 330.983 826.101 330.763C826.967 329.874 827.834 328.986 828.704 328.1C828.987 327.812 829.27 327.523 829.553 327.235C830.307 326.469 831.063 325.704 831.819 324.939C832.189 324.566 832.56 324.192 832.931 323.819C833.593 323.152 834.257 322.486 834.922 321.82L835.789 320.953C835.91 320.833 836.031 320.713 836.151 320.593C838.062 318.688 839.981 316.79 841.907 314.899C842.464 314.353 843.021 313.808 843.579 313.264C844.204 312.654 844.829 312.043 845.455 311.435C845.812 311.088 846.17 310.741 846.527 310.395C847.393 309.556 848.26 308.718 849.129 307.882C849.486 307.539 849.845 307.196 850.202 306.854C850.863 306.22 851.524 305.588 852.187 304.956C852.494 304.663 852.801 304.37 853.108 304.077C853.997 303.232 854.888 302.387 855.78 301.545C856.151 301.195 856.523 300.844 856.895 300.494C857.785 299.656 858.677 298.819 859.57 297.984C859.869 297.705 860.168 297.425 860.468 297.146C861.242 296.425 862.018 295.705 862.795 294.985C863.302 294.516 863.81 294.046 864.318 293.577C864.927 293.015 865.537 292.454 866.147 291.894C866.56 291.514 866.973 291.134 867.387 290.756C868.203 290.009 869.021 289.265 869.84 288.521C870.244 288.153 870.649 287.786 871.054 287.419C871.922 286.632 872.792 285.846 873.663 285.062C873.961 284.794 874.259 284.526 874.558 284.258C875.331 283.564 876.106 282.871 876.882 282.18C877.22 281.878 877.557 281.576 877.896 281.275C878.831 280.443 879.768 279.613 880.707 278.784C880.98 278.544 881.253 278.303 881.525 278.062C882.504 277.2 883.485 276.34 884.467 275.481C884.842 275.154 885.218 274.826 885.594 274.499C886.381 273.813 887.169 273.127 887.959 272.443C888.146 272.281 888.333 272.119 888.52 271.957C889.441 271.16 890.364 270.364 891.289 269.57C891.738 269.185 892.187 268.8 892.637 268.415C893.499 267.677 894.363 266.94 895.229 266.205C895.579 265.908 895.93 265.611 896.28 265.313C897.039 264.671 897.799 264.029 898.56 263.388C899.04 262.983 899.52 262.578 900.001 262.174C900.795 261.507 901.591 260.843 902.387 260.179C902.759 259.868 903.131 259.557 903.504 259.247C904.386 258.513 905.27 257.779 906.155 257.048C906.676 256.618 907.198 256.19 907.719 255.761C908.347 255.243 908.977 254.727 909.607 254.211C910.159 253.76 910.71 253.309 911.263 252.858C911.958 252.291 912.654 251.725 913.352 251.159C913.756 250.831 914.161 250.502 914.566 250.175C915.484 249.433 916.402 248.693 917.322 247.954C917.774 247.592 918.226 247.23 918.678 246.868C919.377 246.309 920.078 245.75 920.779 245.192C921.298 244.78 921.817 244.368 922.336 243.956C923.129 243.328 923.923 242.7 924.718 242.073C925.07 241.795 925.423 241.518 925.776 241.24C926.766 240.463 927.757 239.686 928.75 238.912C929.081 238.654 929.413 238.396 929.745 238.138C930.66 237.426 931.576 236.716 932.493 236.008C932.97 235.64 933.447 235.272 933.924 234.904C934.597 234.386 935.271 233.869 935.945 233.353C936.341 233.05 936.736 232.747 937.132 232.444C938.138 231.676 939.147 230.909 940.156 230.145C940.543 229.851 940.93 229.558 941.317 229.266C942.247 228.564 943.177 227.863 944.109 227.164C944.533 226.846 944.958 226.528 945.382 226.211C946.128 225.653 946.875 225.096 947.622 224.54C947.977 224.276 948.332 224.012 948.687 223.749C949.655 223.03 950.626 222.313 951.598 221.598C952.015 221.29 952.433 220.983 952.852 220.676C953.859 219.936 954.868 219.197 955.879 218.461C956.169 218.249 956.461 218.039 956.752 217.827C957.65 217.174 958.549 216.522 959.45 215.871C959.74 215.662 960.029 215.453 960.318 215.244C961.289 214.545 962.262 213.848 963.235 213.151C963.661 212.847 964.087 212.541 964.514 212.237C965.471 211.554 966.43 210.872 967.391 210.192C967.907 209.827 968.424 209.463 968.94 209.099C969.741 208.534 970.543 207.97 971.346 207.407C971.706 207.154 972.067 206.901 972.428 206.648C973.378 205.984 974.33 205.321 975.283 204.659C975.615 204.429 975.946 204.199 976.278 203.969C977.279 203.276 978.282 202.584 979.285 201.895C979.738 201.583 980.191 201.272 980.644 200.962C981.543 200.345 982.444 199.73 983.346 199.116C983.787 198.816 984.23 198.516 984.672 198.216C985.56 197.613 986.449 197.012 987.339 196.412C987.66 196.196 987.98 195.979 988.301 195.763C989.357 195.052 990.415 194.344 991.475 193.638C991.836 193.397 992.197 193.156 992.559 192.916C993.647 192.192 994.737 191.469 995.828 190.748C996.035 190.612 996.242 190.475 996.448 190.339C997.412 189.704 998.378 189.07 999.344 188.438C999.679 188.218 1000.01 187.997 1000.35 187.778C1001.42 187.082 1002.48 186.389 1003.55 185.696C1003.94 185.446 1004.33 185.195 1004.72 184.944C1005.73 184.288 1006.75 183.633 1007.77 182.979C1008.22 182.689 1008.67 182.4 1009.13 182.11C1009.85 181.65 1010.57 181.191 1011.29 180.732C1011.96 180.309 1012.62 179.886 1013.29 179.464C1014.14 178.924 1015 178.385 1015.85 177.848C1016.22 177.615 1016.59 177.382 1016.96 177.15C1018.02 176.486 1019.09 175.822 1020.15 175.161C1020.54 174.918 1020.93 174.675 1021.32 174.433C1022.35 173.797 1023.38 173.162 1024.4 172.529C1024.68 172.361 1024.95 172.192 1025.23 172.023C1026.23 171.407 1027.23 170.792 1028.24 170.179C1028.6 169.958 1028.96 169.737 1029.33 169.517C1030.37 168.88 1031.42 168.246 1032.47 167.613C1033.03 167.273 1033.6 166.933 1034.16 166.594C1035.05 166.063 1035.93 165.533 1036.82 165.004C1037.3 164.715 1037.78 164.426 1038.27 164.138C1039.04 163.681 1039.8 163.226 1040.57 162.771C1041.04 162.493 1041.51 162.214 1041.98 161.937C1043.04 161.315 1044.09 160.696 1045.15 160.078C1045.34 159.965 1045.53 159.851 1045.73 159.738L1047.11 158.932C1047.97 158.433 1048.83 157.935 1049.68 157.438C1050.05 157.23 1050.41 157.022 1050.77 156.813C1051.63 156.317 1052.49 155.821 1053.35 155.326C1053.75 155.096 1054.16 154.864 1054.56 154.635C1055.61 154.035 1056.66 153.438 1057.71 152.842C1058.21 152.555 1058.72 152.269 1059.22 151.983C1060.27 151.389 1061.33 150.797 1062.38 150.206C1062.78 149.981 1063.18 149.757 1063.59 149.532C1064.49 149.029 1065.39 148.526 1066.29 148.025C1066.69 147.801 1067.1 147.577 1067.5 147.354C1068.47 146.814 1069.45 146.277 1070.42 145.74C1070.98 145.435 1071.54 145.129 1072.09 144.824C1073.13 144.254 1074.18 143.685 1075.22 143.118C1075.63 142.897 1076.04 142.676 1076.44 142.455C1077.5 141.884 1078.55 141.315 1079.61 140.747C1079.82 140.635 1080.03 140.522 1080.23 140.41C1081.43 139.771 1082.62 139.134 1083.82 138.498C1084.15 138.321 1084.48 138.144 1084.82 137.967C1085.89 137.394 1086.98 136.822 1088.06 136.253C1088.59 135.972 1089.13 135.691 1089.66 135.41C1090.77 134.831 1091.87 134.254 1092.98 133.679C1093.2 133.564 1093.42 133.448 1093.64 133.333C1094.62 132.828 1095.59 132.325 1096.57 131.823C1097.1 131.548 1097.63 131.272 1098.17 130.997C1099.23 130.452 1100.3 129.907 1101.36 129.365C1101.77 129.156 1102.18 128.946 1102.6 128.737C1103.79 128.13 1104.99 127.523 1106.19 126.92C1106.36 126.834 1106.53 126.749 1106.7 126.663C1107.76 126.131 1108.82 125.6 1109.89 125.07C1110.31 124.86 1110.73 124.649 1111.15 124.439C1112.29 123.874 1113.43 123.31 1114.57 122.748C1114.97 122.553 1115.37 122.357 1115.77 122.162C1116.9 121.603 1118.04 121.046 1119.18 120.49C1119.67 120.256 1120.15 120.023 1120.63 119.789C1121.62 119.308 1122.61 118.829 1123.61 118.351C1123.82 118.247 1124.04 118.143 1124.25 118.039C1125.41 117.48 1126.58 116.924 1127.74 116.369C1128.29 116.109 1128.83 115.85 1129.38 115.591C1130.46 115.078 1131.54 114.566 1132.63 114.057C1133.01 113.877 1133.39 113.697 1133.77 113.518C1134.85 113.012 1135.93 112.507 1137.01 112.004C1137.4 111.824 1137.79 111.644 1138.17 111.464C1139.14 111.017 1140.1 110.571 1141.07 110.126C1141.66 109.854 1142.25 109.582 1142.84 109.312C1143.99 108.784 1145.14 108.259 1146.3 107.735C1146.62 107.587 1146.95 107.439 1147.28 107.291C1149.83 106.134 1152.39 104.985 1154.96 103.846C1155.37 103.661 1155.79 103.475 1156.21 103.29C1157.35 102.785 1158.49 102.28 1159.64 101.778C1160.12 101.565 1160.61 101.352 1161.1 101.14C1162.17 100.669 1163.25 100.201 1164.33 99.7334C1164.8 99.5284 1165.27 99.3245 1165.75 99.1201C1166.82 98.6565 1167.89 98.194 1168.97 97.7334C1169.23 97.6206 1169.5 97.5071 1169.76 97.3945C1170.92 96.8983 1172.08 96.4038 1173.25 95.9111C1173.81 95.6711 1174.38 95.4316 1174.95 95.1924C1176.09 94.7135 1177.22 94.2363 1178.36 93.7607C1178.75 93.5978 1179.14 93.435 1179.53 93.2725C1180.61 92.8254 1181.68 92.3796 1182.76 91.9355C1183.03 91.8209 1183.31 91.7053 1183.59 91.5908C1184.84 91.0748 1186.1 90.5618 1187.35 90.0498C1187.79 89.8723 1188.22 89.6946 1188.66 89.5176C1189.82 89.0472 1190.98 88.5782 1192.13 88.1113C1192.7 87.8821 1193.27 87.6542 1193.84 87.4258C1194.64 87.1062 1195.44 86.7867 1196.24 86.4688C1196.93 86.1947 1197.62 85.9213 1198.31 85.6484C1199.16 85.3102 1200.02 84.9731 1200.87 84.6367C1201.54 84.3752 1202.2 84.1139 1202.87 83.8535C1204.04 83.3937 1205.22 82.9347 1206.4 82.4785C1206.7 82.3605 1207.01 82.2428 1207.31 82.125C1208.48 81.6757 1209.64 81.2281 1210.81 80.7822C1211.27 80.6036 1211.74 80.4251 1212.21 80.2471C1213.21 79.8639 1214.22 79.4822 1215.23 79.1016C1215.76 78.8999 1216.3 78.698 1216.83 78.4971C1218.01 78.0533 1219.19 77.6111 1220.37 77.1709C1220.75 77.0302 1221.13 76.8894 1221.51 76.749C1222.66 76.3222 1223.81 75.8981 1224.96 75.4746C1225.45 75.2929 1225.95 75.1108 1226.44 74.9297C1227.56 74.5211 1228.67 74.1135 1229.79 73.708C1230.12 73.5908 1230.44 73.4734 1230.76 73.3564C1231.94 72.9304 1233.12 72.5066 1234.3 72.084C1234.91 71.8655 1235.52 71.6472 1236.13 71.4297C1237.25 71.0313 1238.37 70.6345 1239.49 70.2393C1240 70.0586 1240.51 69.8782 1241.02 69.6982C1241.95 69.3741 1242.87 69.0515 1243.8 68.7295C1244.25 68.5716 1244.7 68.4132 1245.16 68.2559C1246.38 67.8302 1247.61 67.4063 1248.84 66.9844C1249.33 66.8137 1249.83 66.6427 1250.33 66.4727C1251.54 66.0596 1252.75 65.6487 1253.96 65.2393C1254.32 65.1172 1254.68 64.9948 1255.04 64.873C1256.11 64.5112 1257.19 64.1509 1258.26 63.792C1259 63.5462 1259.73 63.302 1260.47 63.0576C1261.3 62.7828 1262.13 62.5085 1262.96 62.2354C1263.54 62.042 1264.13 61.8478 1264.72 61.6553C1265.91 61.2657 1267.1 60.8783 1268.29 60.4922C1268.8 60.3268 1269.31 60.1618 1269.82 59.9971C1270.78 59.6865 1271.75 59.3776 1272.71 59.0693C1273.35 58.8643 1273.99 58.6591 1274.63 58.4551C1275.76 58.0957 1276.9 57.7381 1278.03 57.3818C1278.35 57.2789 1278.68 57.1759 1279.01 57.0732C1280.34 56.656 1281.67 56.241 1283 55.8281C1283.45 55.689 1283.9 55.5498 1284.35 55.4111C1285.49 55.0593 1286.63 54.709 1287.77 54.3604C1288.33 54.1916 1288.88 54.0235 1289.43 53.8555C1290.42 53.5549 1291.41 53.2552 1292.4 52.957C1292.83 52.8271 1293.27 52.6969 1293.7 52.5674C1295.05 52.1622 1296.4 51.7591 1297.76 51.3584C1298.13 51.2468 1298.51 51.1356 1298.89 51.0244C1300.2 50.6389 1301.51 50.2545 1302.82 49.873C1303.3 49.7322 1303.79 49.5925 1304.27 49.4521C1305.11 49.208 1305.96 48.9651 1306.8 48.7227C1307.42 48.5443 1308.04 48.3649 1308.66 48.1875C1309.91 47.8299 1311.17 47.475 1312.42 47.1211C1312.87 46.996 1313.31 46.8707 1313.75 46.7461C1315.03 46.3876 1316.31 46.0304 1317.58 45.6758C1318.07 45.5402 1318.56 45.4055 1319.05 45.2705C1319.94 45.0241 1320.84 44.7786 1321.73 44.5342C1322.48 44.329 1323.23 44.1247 1323.98 43.9209C1325.05 43.6304 1326.12 43.3414 1327.19 43.0537C1327.65 42.9306 1328.11 42.8072 1328.57 42.6846C1329.91 42.3254 1331.26 41.9682 1332.6 41.6133C1332.93 41.5278 1333.25 41.4427 1333.58 41.3574C1334.84 41.0245 1336.11 40.6924 1337.38 40.3633C1337.76 40.2662 1338.13 40.1691 1338.51 40.0723C1339.73 39.7563 1340.95 39.4433 1342.18 39.1309C1342.68 39.0036 1343.18 38.8757 1343.68 38.749C1344.89 38.4408 1346.11 38.1339 1347.33 37.8291C1347.9 37.6841 1348.48 37.5397 1349.06 37.3955C1350.02 37.1564 1350.99 36.9185 1351.95 36.6816C1352.77 36.4795 1353.59 36.2787 1354.41 36.0781C1355.2 35.886 1355.99 35.6946 1356.77 35.5039C1357.45 35.341 1358.12 35.1775 1358.79 35.0156C1359.99 34.7285 1361.19 34.443 1362.38 34.1592C1362.91 34.0353 1363.43 33.9123 1363.95 33.7891C1365.25 33.4842 1366.54 33.1808 1367.83 32.8799C1368.36 32.758 1368.89 32.6369 1369.41 32.5156C1370.31 32.3084 1371.21 32.1018 1372.1 31.8965C1372.68 31.7639 1373.26 31.6317 1373.84 31.5C1375.13 31.2079 1376.42 30.9181 1377.71 30.6299C1378.2 30.5193 1378.7 30.4088 1379.19 30.2988C1380.53 30.0001 1381.88 29.7027 1383.22 29.4082C1383.52 29.3435 1383.81 29.2793 1384.11 29.2148C1385.49 28.9134 1386.87 28.6134 1388.26 28.3164C1388.42 28.2813 1388.59 28.246 1388.75 28.2109C1390.08 27.9254 1391.42 27.6427 1392.75 27.3613C1393.38 27.2292 1394.01 27.0971 1394.63 26.9658C1395.93 26.6949 1397.23 26.4253 1398.52 26.1582C1398.89 26.0834 1399.25 26.01 1399.61 25.9355C1400.98 25.6549 1402.35 25.3749 1403.73 25.0986C1403.85 25.0734 1403.98 25.0486 1404.1 25.0234C1405.53 24.7355 1406.97 24.4502 1408.4 24.167C1408.83 24.0831 1409.25 23.9986 1409.68 23.915C1411.02 23.6511 1412.37 23.3897 1413.71 23.1299C1414.15 23.046 1414.58 22.9623 1415.01 22.8789C1416.28 22.6359 1417.55 22.3956 1418.82 22.1562C1419.34 22.0579 1419.86 21.9601 1420.38 21.8623C1421.55 21.6428 1422.72 21.4244 1423.9 21.208C1424.32 21.1301 1424.74 21.0521 1425.16 20.9746C1426.56 20.7184 1427.96 20.4646 1429.35 20.2129C1429.71 20.1492 1430.06 20.0849 1430.42 20.0215C1431.92 19.7517 1433.43 19.4844 1434.94 19.2197C1435.1 19.1914 1435.26 19.163 1435.42 19.1348C1436.86 18.8834 1438.3 18.6343 1439.74 18.3877C1440.02 18.3393 1440.3 18.2904 1440.58 18.2422C1441.97 18.0054 1443.36 17.7714 1444.75 17.5391C1445.32 17.4436 1445.89 17.3486 1446.46 17.2539C1447.75 17.0399 1449.04 16.8274 1450.33 16.6172C1450.84 16.5338 1451.36 16.451 1451.87 16.3682C1452.93 16.1964 1454 16.0257 1455.06 15.8564C1455.45 15.795 1455.83 15.7329 1456.22 15.6719C1457.69 15.4403 1459.15 15.212 1460.62 14.9854C1461.02 14.9243 1461.41 14.8634 1461.81 14.8027C1463.19 14.59 1464.58 14.3793 1465.97 14.1709C1466.4 14.1059 1466.83 14.0412 1467.27 13.9766C1468.73 13.7585 1470.19 13.5423 1471.66 13.3291C1471.7 13.3229 1471.74 13.3158 1471.78 13.3096C1473.25 13.0955 1474.73 12.8859 1476.2 12.6768C1476.68 12.6083 1477.17 12.5396 1477.65 12.4717C1479.03 12.2776 1480.41 12.0854 1481.79 11.8955C1482.23 11.8346 1482.67 11.7743 1483.11 11.7139C1484.6 11.5104 1486.1 11.3078 1487.59 11.1094C1487.63 11.1037 1487.67 11.0984 1487.72 11.0928C1489.17 10.8995 1490.63 10.71 1492.08 10.5215C1492.56 10.4594 1493.04 10.3965 1493.52 10.335C1494.86 10.1642 1496.19 9.99587 1497.52 9.8291C1498.02 9.76706 1498.51 9.70504 1499.01 9.64355C1500.42 9.46856 1501.83 9.29554 1503.25 9.125C1503.69 9.07159 1504.13 9.0188 1504.58 8.96582C1505.63 8.83997 1506.68 8.71518 1507.74 8.5918C1508.3 8.52625 1508.86 8.46035 1509.42 8.39551C1510.75 8.24089 1512.09 8.08912 1513.42 7.93848C1513.92 7.88223 1514.42 7.8262 1514.92 7.77051C1516.42 7.60337 1517.92 7.4385 1519.42 7.27637C1519.61 7.25581 1519.8 7.23532 1519.99 7.21484C1521.44 7.05903 1522.89 6.90603 1524.34 6.75488C1524.62 6.72598 1524.9 6.6967 1525.17 6.66797C1526.67 6.51275 1528.17 6.3602 1529.67 6.20996C1530.06 6.17116 1530.45 6.13222 1530.83 6.09375C1532.27 5.95141 1533.7 5.81063 1535.14 5.67285C1535.69 5.61985 1536.25 5.56795 1536.8 5.51562C1537.98 5.40355 1539.17 5.29256 1540.35 5.18359C1540.65 5.15583 1540.96 5.12815 1541.26 5.10059C1542.8 4.95977 1544.35 4.82208 1545.89 4.68652C1546.24 4.65647 1546.58 4.62648 1546.92 4.59668C1548.41 4.46735 1549.9 4.34027 1551.39 4.21582C1551.78 4.18287 1552.18 4.14979 1552.57 4.11719C1554.13 3.98834 1555.69 3.86178 1557.25 3.73828C1557.3 3.73466 1557.34 3.73116 1557.39 3.72754C1558.89 3.6086 1560.4 3.49285 1561.91 3.37891C1562.38 3.34305 1562.86 3.30685 1563.33 3.27148C1564.81 3.16101 1566.3 3.05291 1567.78 2.94727C1568.08 2.9265 1568.37 2.90632 1568.66 2.88574C1570.21 2.77662 1571.75 2.6693 1573.3 2.56543C1573.64 2.54328 1573.97 2.52191 1574.3 2.5C1575.62 2.41233 1576.94 2.327 1578.27 2.24316C1578.65 2.21925 1579.02 2.1945 1579.4 2.1709C1580.81 2.08284 1582.22 1.99777 1583.63 1.91406C1584.18 1.88161 1584.73 1.84919 1585.28 1.81738C1586.69 1.73507 1588.11 1.6541 1589.53 1.57617C1590.01 1.54996 1590.49 1.52571 1590.96 1.5C1592.1 1.43896 1593.23 1.37855 1594.37 1.32031C1594.83 1.29661 1595.29 1.27226 1595.75 1.24902C1597.16 1.17834 1598.56 1.11032 1599.97 1.04395C1600.52 1.01817 1601.06 0.992901 1601.61 0.967773C1603.03 0.902275 1604.46 0.83842 1605.89 0.777344C1606.34 0.75806 1606.79 0.739545 1607.24 0.720703C1608.57 0.664857 1609.91 0.611537 1611.25 0.55957C1611.51 0.549107 1611.78 0.53765 1612.05 0.527344C1613.65 0.466369 1615.24 0.408975 1616.83 0.353516C1617.17 0.341928 1617.5 0.330683 1617.83 0.319336C1619.36 0.26728 1620.89 0.216901 1622.42 0.169922C1622.8 0.158529 1623.17 0.147813 1623.54 0.136719C1625.15 0.0884961 1626.77 0.0425705 1628.38 0C1630.18 0.00241033 1631.98 0.00943211 1633.77 0.0214844ZM1582.89 790.275C1582.89 802.161 1582.89 813.476 1582.91 824.259C1582.91 825.899 1582.91 827.551 1582.9 829.215C1582.9 830.88 1582.9 832.558 1582.9 834.247C1582.89 836.136 1582.89 838.041 1582.89 839.959C1582.89 845.754 1582.89 795.925 1582.89 790.275Z" fill="url(#paint0_linear_172_314)"/>
<defs>
<linearGradient id="paint0_linear_172_314" x1="581.658" y1="2062.88" x2="2004.12" y2="1413.81" gradientUnits="userSpaceOnUse">
<stop stop-color="#FFF5E9"/>
<stop offset="1" stop-color="#E6CDC8"/>
</linearGradient>
</defs>
</svg>
